<svg width="75" height="96" viewBox="0 0 75 96" fill="none" xmlns="http://www.w3.org/2000/svg">
<rect x="0.762939" y="12.7421" width="68.6149" height="82.2775" rx="5" fill="#1E38C1"/>
<path d="M74.5259 83.2569C74.5259 86.0183 72.2873 88.2569 69.5259 88.2569H12.4875C9.72612 88.2569 7.48755 86.0183 7.48755 83.2569V5.2691C7.48755 2.50768 9.72613 0.269104 12.4875 0.269104H51.5053C52.8314 0.269104 54.1032 0.795888 55.0409 1.73357L73.0614 19.7541C73.9991 20.6918 74.5259 21.9636 74.5259 23.2896V83.2569Z" fill="#69A1F8"/>
<rect x="18.6134" y="36.9781" width="18.7687" height="6.28484" rx="2" fill="#1E38C1"/>
<rect x="18.6134" y="46.196" width="42.8191" height="4.02011" rx="2" fill="#1E38C1"/>
<rect x="18.6134" y="53.8808" width="42.819" height="4.02011" rx="2" fill="#1E38C1"/>
<rect x="18.6134" y="61.5657" width="42.819" height="4.02011" rx="2" fill="#1E38C1"/>
<path d="M74.5261 21.2351H53.5601V0.269104L74.5261 21.2351Z" fill="#E9F2FF"/>
</svg>
