<svg width="74" height="96" viewBox="0 0 74 96" fill="none" xmlns="http://www.w3.org/2000/svg">
<rect y="0.269104" width="73.7629" height="74.6997" rx="5" fill="#1E38C1"/>
<rect x="10.1682" y="5.78326" width="58.7599" height="42.9832" rx="3" fill="#E9F2FF"/>
<path d="M73.7629 87.6433C73.7629 89.5996 72.9858 91.4758 71.6025 92.8591C70.2191 94.2424 68.3429 95.0196 66.3866 95.0196H7.37629C5.41998 95.0196 3.54379 94.2424 2.16047 92.8591C0.777143 91.4758 0 89.5996 0 87.6433V36.0092C0 34.0529 0.777143 32.1767 2.16047 30.7934C3.54379 29.4101 5.41998 28.6329 7.37629 28.6329H24.2115C25.2145 28.6329 26.1512 29.1342 26.7076 29.9688L32.3027 38.3615C32.8591 39.1961 33.7958 39.6974 34.7989 39.6974H66.3866C68.3429 39.6974 70.2191 40.4745 71.6025 41.8578C72.9858 43.2412 73.7629 45.1173 73.7629 47.0737V87.6433Z" fill="#69A1F8"/>
</svg>
