<svg width="75" height="96" viewBox="0 0 75 96" fill="none" xmlns="http://www.w3.org/2000/svg">
<rect x="0.526123" y="12.7421" width="68.6149" height="82.2775" rx="5" fill="#1E38C1"/>
<rect x="0.526123" y="12.7421" width="68.6149" height="82.2775" rx="5" fill="#1E38C1"/>
<path d="M74.6376 83.2569C74.6376 86.0183 72.399 88.2569 69.6376 88.2569H12.5992C9.83782 88.2569 7.59924 86.0183 7.59924 83.2569V5.2691C7.59924 2.50768 9.83782 0.269104 12.5992 0.269104H51.617C52.9431 0.269104 54.2149 0.795888 55.1525 1.73357L73.1731 19.7541C74.1108 20.6918 74.6376 21.9636 74.6376 23.2896V83.2569Z" fill="#69A1F8"/>
<path d="M74.6375 21.2351H53.6715V0.269104L74.6375 21.2351Z" fill="#E9F2FF"/>
<path d="M34.8336 39.9111L20.1689 60.8606H49.4982L34.8336 39.9111Z" fill="#1E38C1"/>
<path d="M49.4984 47.034L39.0236 60.8606H59.9731L49.4984 47.034Z" fill="#1E38C1"/>
<path d="M56.8305 46.196C58.566 46.196 59.973 44.7891 59.973 43.0536C59.973 41.318 58.566 39.9111 56.8305 39.9111C55.095 39.9111 53.6881 41.318 53.6881 43.0536C53.6881 44.7891 55.095 46.196 56.8305 46.196Z" fill="#1E38C1"/>
</svg>
