<svg width="16" height="16" viewBox="0 0 16 16" fill="none" xmlns="http://www.w3.org/2000/svg">
<path d="M12.8528 7.30676H3.14714C2.38139 7.30676 1.76062 7.92752 1.76062 8.69328V13.5461C1.76062 14.3119 2.38139 14.9326 3.14714 14.9326H12.8528C13.6185 14.9326 14.2393 14.3119 14.2393 13.5461V8.69328C14.2393 7.92752 13.6185 7.30676 12.8528 7.30676Z" stroke="white" stroke-width="2" stroke-linecap="round" stroke-linejoin="round"/>
<path d="M4.53369 7.30676V4.53371C4.53369 3.61439 4.89889 2.73273 5.54895 2.08267C6.199 1.43261 7.08067 1.06741 7.99999 1.06741C8.91931 1.06741 9.80098 1.43261 10.451 2.08267C11.1011 2.73273 11.4663 3.61439 11.4663 4.53371V7.30676" stroke="white" stroke-width="2" stroke-linecap="round" stroke-linejoin="round"/>
</svg>
