<svg width="557" height="325" viewBox="0 0 557 325" fill="none" xmlns="http://www.w3.org/2000/svg">
<path d="M514.19 168.606H464.752C463.112 168.606 461.539 167.954 460.379 166.794C459.22 165.635 458.568 164.062 458.568 162.422V93.9993C458.568 92.3593 459.22 90.7864 460.379 89.6267C461.539 88.467 463.112 87.8155 464.752 87.8155H496.104L520.374 112.829V162.422C520.374 164.062 519.722 165.635 518.563 166.794C517.403 167.954 515.83 168.606 514.19 168.606Z" fill="#EBEBEB"/>
<path d="M496.104 87.8155V107.07C496.104 108.59 496.705 110.049 497.776 111.127C498.848 112.206 500.302 112.818 501.822 112.829H520.341L496.104 87.8155Z" fill="#F5F5F5"/>
<path d="M496.357 108.76C496.357 108.76 496.112 113.433 501.43 114.969C501.635 115.026 501.839 115.067 502.043 115.108C504.494 115.541 520.374 118.375 520.374 117.999V112.829H501.855C501.855 112.829 497.232 112.673 496.357 108.76Z" fill="#E0E0E0"/>
<path d="M514.19 168.606C514.19 168.606 514.558 168.606 515.26 168.483C516.289 168.289 517.252 167.839 518.062 167.176C518.711 166.64 519.242 165.976 519.623 165.226C520.004 164.475 520.226 163.654 520.276 162.814C520.276 160.821 520.276 158.501 520.276 155.919C520.276 145.561 520.227 130.735 520.194 112.829L520.243 112.951L495.957 87.9707L496.104 88.036H466.149C465.358 88.004 464.566 88.034 463.78 88.1259C463.003 88.2574 462.26 88.5418 461.594 88.9624C460.928 89.3831 460.352 89.9317 459.9 90.5766C459.258 91.4671 458.878 92.52 458.805 93.6154C458.805 94.71 458.805 95.8537 458.805 96.9728V116.692C458.805 125.245 458.805 133.496 458.805 141.362C458.805 145.294 458.805 149.123 458.805 152.848C458.805 154.71 458.805 156.54 458.805 158.354V161.041C458.764 161.909 458.803 162.778 458.919 163.639C459.084 164.46 459.419 165.238 459.901 165.923C460.384 166.608 461.004 167.185 461.721 167.617C462.417 168.044 463.193 168.322 464.001 168.434C464.815 168.506 465.634 168.528 466.451 168.499H475.78L503.938 168.565L511.592 168.606H513.586H514.264H513.586H511.592H503.938L475.78 168.679H466.378C465.56 168.707 464.742 168.688 463.927 168.622C462.616 168.446 461.394 167.865 460.43 166.96C459.466 166.055 458.809 164.871 458.552 163.574C458.423 162.692 458.379 161.8 458.421 160.911V158.223C458.421 156.41 458.421 154.58 458.421 152.717C458.421 148.992 458.421 145.164 458.421 141.232C458.421 133.365 458.421 125.115 458.421 116.562C458.421 112.281 458.421 107.925 458.421 103.492V96.9564C458.421 95.8291 458.421 94.7263 458.421 93.5664C458.52 92.1339 459.1 90.7769 460.067 89.7153C461.033 88.6536 462.33 87.9497 463.747 87.7174C464.561 87.6226 465.38 87.5925 466.198 87.6276H496.243L496.3 87.6929L520.554 112.722L520.603 112.771V112.845C520.603 130.751 520.545 145.578 520.529 155.936C520.529 158.525 520.529 160.837 520.48 162.838C520.391 164.234 519.832 165.559 518.895 166.597C517.957 167.635 516.697 168.326 515.317 168.557C515.048 168.605 514.774 168.627 514.5 168.622C514.397 168.624 514.293 168.618 514.19 168.606Z" fill="#E0E0E0"/>
<path d="M520.374 112.829C520.216 112.846 520.057 112.846 519.9 112.829L518.536 112.869L513.52 112.935L506.078 112.984H501.683C500.447 112.945 499.254 112.524 498.267 111.78C497.279 111.035 496.547 110.003 496.169 108.826C495.941 108.061 495.85 107.262 495.9 106.465C495.9 104.937 495.9 103.467 495.9 102.07C495.9 99.2846 495.9 96.7604 495.949 94.6283C495.998 92.4962 495.998 90.8543 496.014 89.6126C496.014 89.0571 496.014 88.6079 496.014 88.2484C496.01 88.0895 496.024 87.9306 496.055 87.7746C496.078 87.9317 496.078 88.0913 496.055 88.2484C496.055 88.6079 496.055 89.0653 496.055 89.6126C496.055 90.8543 496.096 92.5534 496.129 94.6283C496.161 96.7032 496.129 99.2846 496.169 102.07C496.169 103.467 496.169 104.937 496.169 106.465C496.107 107.226 496.198 107.992 496.437 108.717C496.675 109.443 497.056 110.113 497.558 110.688C498.059 111.257 498.671 111.717 499.357 112.04C500.043 112.363 500.787 112.543 501.545 112.567H505.931L513.373 112.608L518.389 112.682H519.753C519.968 112.689 520.178 112.739 520.374 112.829Z" fill="#E0E0E0"/>
<path d="M495.173 104.995C495.173 105.117 489.332 105.215 482.102 105.215C474.873 105.215 469.032 105.117 469.032 104.995C469.032 104.872 474.873 104.782 482.102 104.782C489.332 104.782 495.173 104.88 495.173 104.995Z" fill="#E0E0E0"/>
<path d="M507.549 114.601C507.549 114.724 498.939 114.814 488.319 114.814C477.7 114.814 469.09 114.724 469.09 114.601C469.09 114.479 477.7 114.389 488.319 114.389C498.939 114.389 507.549 114.487 507.549 114.601Z" fill="#E0E0E0"/>
<path d="M507.549 124.208C507.549 124.33 498.939 124.42 488.319 124.42C477.7 124.42 469.09 124.33 469.09 124.208C469.09 124.085 477.7 123.995 488.319 123.995C498.939 123.995 507.549 124.093 507.549 124.208Z" fill="#E0E0E0"/>
<path d="M507.549 133.814C507.549 133.937 498.939 134.027 488.319 134.027C477.7 134.027 469.09 133.937 469.09 133.814C469.09 133.692 477.7 133.602 488.319 133.602C498.939 133.602 507.549 133.716 507.549 133.814Z" fill="#E0E0E0"/>
<path d="M507.549 143.421C507.549 143.544 498.939 143.633 488.319 143.633C477.7 143.633 469.09 143.544 469.09 143.421C469.09 143.298 477.7 143.209 488.319 143.209C498.939 143.209 507.549 143.307 507.549 143.421Z" fill="#E0E0E0"/>
<path d="M507.549 155.274C507.549 155.388 498.939 155.486 488.319 155.486C477.7 155.486 469.09 155.388 469.09 155.274C469.09 155.16 477.7 155.062 488.319 155.062C498.939 155.062 507.549 155.152 507.549 155.274Z" fill="#E0E0E0"/>
<path d="M486.024 136.404H450.93C449.026 136.404 447.483 137.947 447.483 139.851V151.827C447.483 153.731 449.026 155.274 450.93 155.274H486.024C487.928 155.274 489.471 153.731 489.471 151.827V139.851C489.471 137.947 487.928 136.404 486.024 136.404Z" fill="#E0E0E0"/>
<path d="M452.352 142.555H455.619C457.955 142.555 459.548 143.96 459.548 146.125C459.548 148.29 457.955 149.687 455.619 149.687H452.352V142.555ZM455.505 148.331C455.806 148.349 456.108 148.305 456.392 148.203C456.676 148.1 456.936 147.94 457.156 147.733C457.376 147.526 457.551 147.276 457.671 146.999C457.791 146.722 457.853 146.423 457.853 146.121C457.853 145.819 457.791 145.52 457.671 145.243C457.551 144.965 457.376 144.716 457.156 144.509C456.936 144.302 456.676 144.142 456.392 144.039C456.108 143.936 455.806 143.893 455.505 143.911H454.002V148.331H455.505Z" fill="white"/>
<path d="M460.308 146.125C460.264 145.345 460.455 144.569 460.856 143.899C461.257 143.228 461.851 142.694 462.559 142.364C463.268 142.034 464.059 141.925 464.83 142.05C465.602 142.175 466.318 142.528 466.886 143.064C467.455 143.601 467.849 144.295 468.018 145.058C468.188 145.821 468.124 146.617 467.836 147.343C467.549 148.07 467.049 148.693 466.403 149.133C465.757 149.572 464.994 149.808 464.213 149.809C463.711 149.838 463.209 149.764 462.736 149.592C462.264 149.42 461.832 149.153 461.466 148.809C461.101 148.464 460.81 148.048 460.61 147.586C460.411 147.125 460.308 146.628 460.308 146.125ZM466.443 146.125C466.433 145.686 466.294 145.26 466.043 144.9C465.793 144.539 465.441 144.261 465.033 144.1C464.624 143.939 464.178 143.901 463.748 143.993C463.319 144.084 462.926 144.301 462.619 144.614C462.312 144.928 462.105 145.325 462.023 145.757C461.94 146.188 461.987 146.634 462.157 147.038C462.328 147.443 462.613 147.788 462.979 148.031C463.345 148.274 463.774 148.404 464.213 148.404C464.512 148.412 464.81 148.359 465.087 148.246C465.365 148.134 465.616 147.966 465.826 147.752C466.035 147.538 466.198 147.283 466.304 147.003C466.41 146.723 466.458 146.424 466.443 146.125Z" fill="white"/>
<path d="M468.902 146.125C468.941 145.353 469.208 144.61 469.668 143.99C470.129 143.369 470.762 142.898 471.489 142.637C472.216 142.375 473.004 142.334 473.755 142.518C474.505 142.703 475.184 143.105 475.706 143.674L474.645 144.655C474.427 144.393 474.153 144.183 473.843 144.042C473.534 143.9 473.196 143.83 472.856 143.838C472.251 143.838 471.671 144.078 471.244 144.505C470.817 144.933 470.576 145.512 470.576 146.117C470.576 146.721 470.817 147.301 471.244 147.728C471.671 148.156 472.251 148.396 472.856 148.396C473.196 148.404 473.534 148.334 473.844 148.193C474.154 148.051 474.427 147.841 474.645 147.579L475.706 148.559C475.186 149.127 474.511 149.529 473.764 149.715C473.017 149.901 472.232 149.863 471.507 149.606C470.781 149.349 470.147 148.885 469.684 148.27C469.221 147.655 468.949 146.918 468.902 146.149V146.125Z" fill="white"/>
<path d="M481.163 149.687L479.44 147.236L477.757 149.687H475.862L478.5 146.06L475.992 142.555H477.863L479.497 144.867L481.131 142.555H482.911L480.461 146.002L483.116 149.687H481.163Z" fill="white"/>
<path d="M455.513 256.96L418.083 322.418L344.016 323.488C342.881 323.503 341.795 323.948 340.976 324.733C340.157 325.519 339.667 326.586 339.605 327.719L414.922 327.932L417.756 327.842L512.058 328.021L531.116 295.158L555.459 260.269C555.819 259.751 556.03 259.145 556.07 258.516C556.109 257.888 555.976 257.26 555.684 256.701C555.391 256.143 554.952 255.676 554.412 255.35C553.873 255.024 553.255 254.852 552.625 254.853L458.486 255.212C457.881 255.218 457.288 255.382 456.766 255.689C456.244 255.995 455.812 256.434 455.513 256.96Z" fill="#EBEBEB"/>
<path d="M555.476 257.344C555.329 257.381 555.178 257.398 555.026 257.393L553.695 257.442L548.606 257.524L529.883 257.679L468.093 257.81H463.592C462.927 257.749 462.259 257.869 461.656 258.156C461.054 258.444 460.54 258.888 460.169 259.444L455.971 267.008L448.022 281.353L434.519 305.631C430.672 312.468 427.543 318.023 425.337 321.968L422.805 326.379C422.527 326.837 422.307 327.196 422.119 327.515C422.048 327.649 421.963 327.775 421.865 327.891C421.899 327.741 421.957 327.597 422.037 327.466L422.642 326.29L425.019 321.789C427.167 317.827 430.206 312.223 433.939 305.32L447.271 280.952L455.178 266.575L459.393 258.954C459.85 258.272 460.479 257.723 461.217 257.365C461.954 257.006 462.774 256.849 463.592 256.911H468.093L529.883 257.05L548.606 257.197L553.695 257.287H555.026C555.178 257.285 555.329 257.304 555.476 257.344Z" fill="#E0E0E0"/>
<path d="M489.112 290.257C487.478 292.103 487.404 294.782 489.022 296.244C490.639 297.707 493.302 297.388 494.969 295.542C496.635 293.696 496.676 291.016 495.058 289.554C493.441 288.092 490.778 288.41 489.112 290.257Z" fill="white"/>
<path d="M12.4982 258.194V297.339H5.96313V301.595H12.4982V327.793H134.672V303.948H125.637V298.728H134.672V290.967H138.756V287.43H133.937V258.194H12.4982Z" fill="#F5F5F5"/>
<path d="M102.242 258.3V327.36H134.688V303.515H125.637V298.752L134.688 298.916V291.123L138.789 291.131L138.716 287.103L133.937 286.989V258.186L102.242 258.3Z" fill="#E0E0E0"/>
<path d="M104.554 301.031C104.554 301.268 82.4403 301.464 55.1726 301.464C27.9049 301.464 5.79175 301.268 5.79175 301.031C5.79175 300.795 27.8967 300.598 55.1726 300.598C82.4485 300.598 104.554 300.786 104.554 301.031Z" fill="#E0E0E0"/>
<path d="M104.554 297.094C104.554 297.331 82.4403 297.527 55.1726 297.527C27.9049 297.527 5.79175 297.331 5.79175 297.094C5.79175 296.857 27.8967 296.661 55.1726 296.661C82.4485 296.661 104.554 296.816 104.554 297.094Z" fill="#E0E0E0"/>
<path d="M110.893 286.352C110.893 286.589 88.7875 286.785 61.5198 286.785C34.2521 286.785 12.1389 286.589 12.1389 286.352C12.1389 286.115 34.2439 285.911 61.528 285.911C88.812 285.911 110.893 286.107 110.893 286.352Z" fill="#E0E0E0"/>
<path d="M111.505 315.515C111.505 315.752 89.392 315.948 62.1243 315.948C34.8566 315.948 12.7434 315.752 12.7434 315.515C12.7434 315.278 34.8484 315.066 62.1243 315.066C89.4002 315.066 111.505 315.278 111.505 315.515Z" fill="#E0E0E0"/>
<path d="M420.24 91.5323H371.954C371.16 91.5334 370.374 91.378 369.641 91.0751C368.908 90.7722 368.241 90.3277 367.68 89.7671C367.118 89.2064 366.673 88.5405 366.369 87.8076C366.065 87.0746 365.909 86.289 365.909 85.4955V18.6496C365.909 17.8561 366.065 17.0704 366.369 16.3375C366.673 15.6045 367.118 14.9387 367.68 14.378C368.241 13.8173 368.908 13.3728 369.641 13.0699C370.374 12.767 371.16 12.6117 371.954 12.6128H402.611L426.301 37.0459V85.52C426.298 86.3128 426.139 87.0972 425.832 87.8283C425.526 88.5595 425.079 89.2232 424.516 89.7815C423.953 90.3398 423.286 90.7818 422.552 91.0822C421.818 91.3826 421.033 91.5355 420.24 91.5323Z" fill="#EBEBEB"/>
<path d="M402.611 12.6128V31.4012C402.611 32.8918 403.203 34.3213 404.257 35.3753C405.311 36.4292 406.741 37.0214 408.232 37.0214H426.301L402.611 12.6128Z" fill="#F5F5F5"/>
<path d="M402.824 33.0758C402.824 33.0758 402.587 37.634 407.782 39.1371C407.976 39.1923 408.172 39.2359 408.371 39.2678C410.74 39.6926 426.285 42.4536 426.285 42.1024V37.0459H408.199C408.199 37.0459 403.682 36.8906 402.824 33.0758Z" fill="#E0E0E0"/>
<path d="M420.24 91.5323C420.24 91.5323 420.607 91.5323 421.285 91.4098C422.605 91.1687 423.805 90.4919 424.693 89.4877C425.582 88.4834 426.108 87.2099 426.187 85.8712C426.187 83.927 426.187 81.6643 426.187 79.1401C426.187 69.0188 426.146 54.5354 426.113 37.0459L426.162 37.1684L402.472 12.7516L402.611 12.817H373.318C372.543 12.786 371.768 12.8133 370.998 12.8986C369.47 13.1545 368.107 14.0066 367.207 15.2676C366.583 16.1371 366.215 17.1646 366.145 18.2329C366.096 19.303 366.145 20.4303 366.145 21.5005V28.0356C366.145 32.3487 366.145 36.6047 366.145 40.779C366.145 49.1358 366.145 57.1985 366.145 64.8772C366.145 68.7166 366.145 72.4579 366.145 76.1013C366.145 77.9148 366.145 79.7119 366.145 81.4764V84.0986C366.105 84.9471 366.143 85.7977 366.26 86.6391C366.419 87.4404 366.744 88.1995 367.214 88.8678C367.684 89.536 368.288 90.0986 368.988 90.5193C369.665 90.9465 370.426 91.2249 371.218 91.3362C372.006 91.4031 372.797 91.4249 373.587 91.4016H382.704L410.217 91.4669L417.691 91.5078H419.635H420.297H419.635H417.691H410.217L382.704 91.5813H373.53C372.713 91.6079 371.895 91.5888 371.079 91.5241C369.802 91.354 368.61 90.7907 367.667 89.9125C366.725 89.0343 366.079 87.8846 365.819 86.6228C365.697 85.7571 365.656 84.882 365.696 84.0087V81.3865C365.696 79.6221 365.696 77.8249 365.696 76.0114C365.696 72.3681 365.696 68.6267 365.696 64.7874C365.696 57.1086 365.696 49.0459 365.696 40.6892V21.5168C365.696 20.414 365.696 19.3357 365.696 18.2084C365.77 17.0599 366.166 15.9556 366.84 15.0225C367.319 14.3508 367.927 13.781 368.628 13.3463C369.329 12.9116 370.11 12.6206 370.924 12.4902C371.718 12.3956 372.519 12.3656 373.318 12.4003H402.66L402.726 12.4575L426.415 36.9151L426.473 36.9642V37.0377C426.473 54.5273 426.415 69.0107 426.391 79.1319C426.391 81.6561 426.391 83.9025 426.35 85.8712C426.266 87.2368 425.721 88.5335 424.804 89.5486C423.887 90.5638 422.652 91.2373 421.302 91.4588C421.032 91.5091 420.759 91.531 420.485 91.5241L420.24 91.5323Z" fill="#E0E0E0"/>
<path d="M426.301 37.0459C426.146 37.0629 425.99 37.0629 425.835 37.0459L424.504 37.0867L419.602 37.1521H412.34H408.044C406.832 37.1148 405.662 36.7015 404.696 35.9697C403.73 35.2379 403.016 34.2237 402.652 33.0676C402.431 32.318 402.34 31.5362 402.382 30.7558C402.382 29.2691 402.382 27.8395 402.382 26.4672C402.382 23.7469 402.382 21.2881 402.382 19.1969C402.382 17.1056 402.44 15.5127 402.456 14.2955C402.456 13.7564 402.456 13.3153 402.456 12.964C402.447 12.8103 402.46 12.6561 402.497 12.5066C402.514 12.6585 402.514 12.812 402.497 12.964V14.2955C402.497 15.5127 402.538 17.171 402.562 19.1969C402.587 21.2228 402.562 23.7469 402.611 26.4672C402.611 27.8395 402.611 29.2691 402.611 30.7558C402.557 31.4924 402.649 32.2323 402.882 32.9332C403.115 33.6341 403.484 34.2822 403.967 34.8403C404.457 35.3958 405.056 35.8454 405.726 36.1614C406.396 36.4775 407.123 36.6534 407.864 36.6783H412.152L419.415 36.7273L424.316 36.8008H425.647C425.879 36.8386 426.101 36.9219 426.301 37.0459Z" fill="#E0E0E0"/>
<path d="M401.664 29.3916C401.664 29.5142 395.946 29.6122 388.929 29.6122C381.911 29.6122 376.185 29.5142 376.185 29.3916C376.185 29.2691 381.903 29.1792 388.929 29.1792C395.954 29.1792 401.664 29.2773 401.664 29.3916Z" fill="#E0E0E0"/>
<path d="M413.754 38.7777C413.754 38.9002 405.34 38.9901 394.965 38.9901C384.591 38.9901 376.177 38.9002 376.177 38.7777C376.177 38.6551 384.583 38.5653 394.965 38.5653C405.348 38.5653 413.754 38.6633 413.754 38.7777Z" fill="#E0E0E0"/>
<path d="M413.754 48.1637C413.754 48.2781 405.34 48.3761 394.965 48.3761C384.591 48.3761 376.177 48.2781 376.177 48.1637C376.177 48.0493 384.583 47.9513 394.965 47.9513C405.348 47.9513 413.754 48.0493 413.754 48.1637Z" fill="#E0E0E0"/>
<path d="M413.754 57.5498C413.754 57.6641 405.34 57.7622 394.965 57.7622C384.591 57.7622 376.177 57.6641 376.177 57.5498C376.177 57.4354 384.583 57.3374 394.965 57.3374C405.348 57.3374 413.754 57.4272 413.754 57.5498Z" fill="#E0E0E0"/>
<path d="M413.754 66.9358C413.754 67.0501 405.34 67.1482 394.965 67.1482C384.591 67.1482 376.177 67.0501 376.177 66.9358C376.177 66.8214 384.583 66.7234 394.965 66.7234C405.348 66.7234 413.754 66.8132 413.754 66.9358Z" fill="#E0E0E0"/>
<path d="M413.754 78.5029C413.754 78.6255 405.34 78.7153 394.965 78.7153C384.591 78.7153 376.177 78.6255 376.177 78.5029C376.177 78.3804 384.583 78.2905 394.965 78.2905C405.348 78.2905 413.754 78.3886 413.754 78.5029Z" fill="#E0E0E0"/>
<path d="M392.654 60.0739H358.532C356.628 60.0739 355.085 61.6173 355.085 63.5212V75.0557C355.085 76.9595 356.628 78.5029 358.532 78.5029H392.654C394.558 78.5029 396.101 76.9595 396.101 75.0557V63.5212C396.101 61.6173 394.558 60.0739 392.654 60.0739Z" fill="#E0E0E0"/>
<path d="M371.112 68.6104C371.112 70.1625 369.952 71.1346 368.09 71.1346H366.668V73.0543H365.034V66.0862H368.049C369.936 66.0862 371.112 67.0502 371.112 68.6104ZM369.478 68.6104C369.478 67.8507 368.98 67.4014 367.992 67.4014H366.668V69.8521H367.975C368.988 69.8194 369.486 69.3701 369.486 68.6104H369.478Z" fill="white"/>
<path d="M372.256 66.0862H375.425C377.696 66.0862 379.265 67.4586 379.265 69.5662C379.265 71.6738 377.696 73.0543 375.425 73.0543H372.256V66.0862ZM375.344 71.7309C375.639 71.7491 375.934 71.7066 376.212 71.6063C376.49 71.5059 376.744 71.3497 376.96 71.1473C377.175 70.9449 377.346 70.7005 377.464 70.4293C377.581 70.1581 377.641 69.8657 377.641 69.5703C377.641 69.2748 377.581 68.9824 377.464 68.7112C377.346 68.44 377.175 68.1957 376.96 67.9933C376.744 67.7908 376.49 67.6346 376.212 67.5343C375.934 67.4339 375.639 67.3915 375.344 67.4096H373.873V71.7309H375.344Z" fill="white"/>
<path d="M382.083 67.3769V69.2231H385.35V70.5138H382.083V73.0543H380.449V66.0862H385.71V67.3769H382.083Z" fill="white"/>
<path d="M176.333 62.2387H202.425V17.2772H176.333V62.2387Z" fill="#EBEBEB"/>
<path d="M103.557 62.9657H124.159V6.83735H103.557V62.9657Z" fill="#EBEBEB"/>
<path d="M103.32 10.8891C103.32 10.7176 108.025 10.5705 113.841 10.5705C119.658 10.5705 124.363 10.7176 124.363 10.8891C124.363 11.0607 119.649 11.1995 113.841 11.1995C108.033 11.1995 103.32 11.0607 103.32 10.8891Z" fill="#FAFAFA"/>
<path d="M104.447 13.5522C104.447 13.3725 108.907 13.2336 114.397 13.2336C119.886 13.2336 124.355 13.3725 124.355 13.5522C124.355 13.7319 119.895 13.8626 114.397 13.8626C108.899 13.8626 104.447 13.7237 104.447 13.5522Z" fill="#FAFAFA"/>
<path d="M113.27 51.8969C113.098 51.8969 112.951 44.455 112.951 35.2896C112.951 26.1241 113.098 18.6822 113.27 18.6822C113.441 18.6822 113.58 26.1159 113.58 35.2896C113.58 44.4632 113.433 51.8969 113.27 51.8969Z" fill="#FAFAFA"/>
<path d="M103.557 57.0269C103.557 56.8554 108.074 56.7165 113.637 56.7165C119.2 56.7165 123.726 56.8554 123.726 57.0269C123.726 57.1985 119.208 57.3374 113.637 57.3374C108.066 57.3374 103.557 57.1985 103.557 57.0269Z" fill="#FAFAFA"/>
<path d="M103.557 59.4368C103.557 59.2652 108.18 59.1263 113.89 59.1263C119.6 59.1263 124.232 59.2652 124.232 59.4368C124.232 59.6083 119.6 59.7472 113.89 59.7472C108.18 59.7472 103.557 59.6083 103.557 59.4368Z" fill="#FAFAFA"/>
<path d="M124.142 62.9576H140.692V0.759701H124.142V62.9576Z" fill="#E0E0E0"/>
<path d="M124.052 29.3263C124.963 29.832 125.822 30.4257 126.618 31.0989L132.589 35.6326L138.552 40.1745C139.412 40.7612 140.213 41.4286 140.946 42.1677C140.007 41.7158 139.117 41.1683 138.291 40.534C136.706 39.4475 134.541 37.9036 132.213 36.1309C129.885 34.3583 127.81 32.6918 126.34 31.4502C125.505 30.824 124.739 30.1121 124.052 29.3263Z" fill="#FAFAFA"/>
<path d="M123.971 19.589C124.077 19.4583 127.876 22.5216 132.434 26.4345C136.992 30.3474 140.603 33.6231 140.497 33.7865C140.39 33.9499 136.592 30.8538 132.025 26.941C127.459 23.0281 123.857 19.7197 123.971 19.589Z" fill="#FAFAFA"/>
<path d="M52.2235 63.0066H60.1392L60.1392 3.75768H52.2235L52.2235 63.0066Z" fill="#EBEBEB"/>
<path d="M52.5503 11.8285C52.5503 12.0327 54.1841 12.1961 56.259 12.1961C58.3339 12.1961 59.9676 12.0327 59.9676 11.8285C59.9676 11.6243 58.3339 11.4528 56.259 11.4528C54.1841 11.4528 52.5503 11.6161 52.5503 11.8285Z" fill="#FAFAFA"/>
<path d="M52.387 10.5378C52.387 10.7421 54.0207 10.9054 56.0956 10.9054C58.1705 10.9054 59.8043 10.7421 59.8043 10.5378C59.8043 10.3336 58.1705 10.1621 56.0956 10.1621C54.0207 10.1621 52.387 10.3663 52.387 10.5378Z" fill="#FAFAFA"/>
<path d="M52.5503 58.4238C52.5503 58.6281 54.1841 58.7996 56.259 58.7996C58.3339 58.7996 59.9676 58.6281 59.9676 58.4238C59.9676 58.2196 58.3339 58.0481 56.259 58.0481C54.1841 58.0481 52.5503 58.2196 52.5503 58.4238Z" fill="#FAFAFA"/>
<path d="M52.387 57.1332C52.387 57.3374 54.0207 57.5089 56.0956 57.5089C58.1705 57.5089 59.8043 57.3374 59.8043 57.1332C59.8043 56.9289 58.1705 56.7574 56.0956 56.7574C54.0207 56.7574 52.387 56.9289 52.387 57.1332Z" fill="#FAFAFA"/>
<path d="M56.4142 49.3972C56.6266 49.3972 56.79 42.6089 56.79 34.2358C56.79 25.8627 56.6266 19.0825 56.4142 19.0825C56.2018 19.0825 56.0466 25.8627 56.0466 34.2358C56.0466 42.6089 56.2509 49.3972 56.4142 49.3972Z" fill="#FAFAFA"/>
<path d="M87.6926 62.6226H103.524L103.524 3.37374H87.6926V62.6226Z" fill="#E0E0E0"/>
<path d="M99.0719 63.3823C99.1473 63.2856 99.2079 63.1783 99.2517 63.0637C99.366 62.8432 99.5212 62.5164 99.7091 62.0753C100.253 60.7874 100.637 59.4377 100.853 58.0562C101.258 55.8353 100.934 53.5429 99.9297 51.5211C99.2574 50.2794 98.2964 49.2175 97.1277 48.4251C95.7897 47.5171 94.1642 47.1333 92.5613 47.3468C91.6921 47.4906 90.8786 47.8691 90.2087 48.4414C89.84 48.7427 89.5457 49.125 89.3487 49.5585C89.1518 49.9921 89.0575 50.4652 89.0732 50.9411C89.1148 51.4299 89.2567 51.9048 89.49 52.3363C89.7233 52.7678 90.0431 53.1465 90.4293 53.449C91.1869 54.1015 92.1293 54.5013 93.125 54.5926C94.1523 54.6765 95.1856 54.5374 96.1542 54.1849C97.1228 53.8325 98.0039 53.2749 98.737 52.5504C100.327 51.0445 101.317 49.0127 101.523 46.8322C101.743 44.596 101.464 42.3388 100.706 40.2236C100 37.9627 98.6519 35.956 96.8255 34.4482C95.843 33.6757 94.6561 33.2072 93.4109 33.1003C92.7607 33.0365 92.1044 33.1169 91.4888 33.3358C90.8731 33.5547 90.3134 33.9066 89.8493 34.3665C89.3597 34.8641 89.0692 35.5237 89.0324 36.2208C89.0128 36.9057 89.2007 37.5806 89.5715 38.1568C90.3153 39.272 91.4637 40.0542 92.7737 40.3379C94.0381 40.5841 95.3446 40.4982 96.5659 40.0888C97.7872 39.6793 98.8814 38.9602 99.7418 38.0016C101.331 36.1201 102.283 33.7838 102.462 31.3276C102.731 29.0015 102.497 26.6446 101.776 24.4168C101.093 22.2281 99.6426 20.3598 97.6914 19.156C96.7626 18.5613 95.7062 18.1951 94.6087 18.0872C93.5112 17.9792 92.4037 18.1328 91.3769 18.5352C90.856 18.7373 90.3947 19.068 90.0362 19.4966C89.6777 19.9251 89.4335 20.4374 89.3265 20.9858C89.235 21.5055 89.2516 22.0385 89.3752 22.5516C89.4989 23.0646 89.727 23.5466 90.0453 23.9675C90.6931 24.7068 91.5467 25.2362 92.4969 25.4879C93.4471 25.7397 94.4507 25.7023 95.3796 25.3807C97.0392 24.8072 98.4993 23.7696 99.5866 22.3909C101.544 20.1112 102.681 17.2405 102.813 14.2383C102.873 12.4192 102.552 10.6075 101.872 8.91951C101.191 7.23148 100.165 5.70427 98.8596 4.43569C98.603 4.18128 98.3301 3.94388 98.0427 3.72499C97.9511 3.64191 97.8496 3.57056 97.7404 3.5126C99.1029 4.76587 100.224 6.25819 101.049 7.91563C102.009 9.86829 102.458 12.0323 102.356 14.2057C102.196 17.0816 101.09 19.8241 99.2108 22.0069C98.1793 23.2923 96.8018 24.256 95.2407 24.7844C94.4279 25.0642 93.5504 25.0972 92.7189 24.8791C91.8874 24.6611 91.139 24.2017 90.5681 23.559C90.3103 23.2111 90.1253 22.8148 90.0242 22.3937C89.9232 21.9726 89.9081 21.5354 89.98 21.1084C90.0742 20.6689 90.2779 20.2603 90.572 19.9205C90.8662 19.5806 91.2414 19.3205 91.6628 19.1642C92.5933 18.8236 93.5905 18.7054 94.5748 18.8188C95.5592 18.9323 96.5034 19.2744 97.332 19.8177C99.1378 20.9452 100.477 22.685 101.106 24.719C101.78 26.8527 101.995 29.1051 101.735 31.3276C101.566 33.626 100.677 35.8126 99.1945 37.5768C98.4204 38.4361 97.438 39.0814 96.342 39.4506C95.246 39.8197 94.0733 39.9003 92.9371 39.6844C91.823 39.4452 90.845 38.7835 90.2087 37.8382C89.8961 37.4117 89.7422 36.8894 89.7735 36.3614C89.8048 35.8335 90.0194 35.3331 90.3803 34.9464C90.77 34.5669 91.2383 34.2773 91.752 34.098C92.2657 33.9188 92.8124 33.8543 93.3537 33.909C94.4554 34.0059 95.5052 34.4202 96.3762 35.1017C98.088 36.5225 99.3554 38.4052 100.028 40.5258C100.762 42.5391 101.041 44.69 100.845 46.824C100.666 48.8419 99.7605 50.7261 98.2959 52.1256C97.6329 52.7904 96.8343 53.3046 95.9547 53.633C95.0751 53.9615 94.135 54.0965 93.1985 54.029C91.4585 53.8901 89.7594 52.5586 89.6532 50.9575C89.6406 50.5668 89.7172 50.1783 89.8771 49.8216C90.0371 49.4649 90.2762 49.1494 90.5763 48.8989C91.1701 48.3912 91.8896 48.0526 92.6594 47.9186C94.1342 47.7076 95.635 48.0479 96.8745 48.8744C97.9973 49.6054 98.9231 50.6013 99.5702 51.7743C100.566 53.7079 100.918 55.9087 100.575 58.0562C100.39 59.4237 100.053 60.7662 99.5702 62.059C99.2435 62.9167 99.0393 63.3741 99.0719 63.3823Z" fill="#FAFAFA"/>
<path d="M60.0167 62.6472H87.4805V8.68354H60.0167L60.0167 62.6472Z" fill="#FAFAFA"/>
<path d="M60.948 17.6529C60.948 17.8653 66.9031 18.0287 74.2469 18.0287C81.5908 18.0287 87.5377 17.8653 87.5377 17.6529C87.5377 17.4405 81.5744 17.2853 74.2224 17.2853C66.8704 17.2853 60.948 17.4487 60.948 17.6529Z" fill="#E0E0E0"/>
<path d="M60.613 21.7455C60.613 21.9498 66.4865 22.1213 73.7323 22.1213C80.9781 22.1213 86.8597 21.9498 86.8597 21.7455C86.8597 21.5413 80.9862 21.3698 73.7323 21.3698C66.4783 21.3698 60.613 21.5413 60.613 21.7455Z" fill="#E0E0E0"/>
<path d="M59.7307 56.5532C59.7307 56.7574 65.9146 56.9208 73.5443 56.9208C81.174 56.9208 87.366 56.7574 87.366 56.5532C87.366 56.3489 81.1822 56.1774 73.5443 56.1774C65.9064 56.1774 59.7307 56.3489 59.7307 56.5532Z" fill="#E0E0E0"/>
<path d="M60.0984 51.7417C60.0984 51.9459 66.127 52.1174 73.5607 52.1174C80.9944 52.1174 87.0312 51.9459 87.0312 51.7417C87.0312 51.5375 81.0026 51.3659 73.5607 51.3659C66.1189 51.3659 60.0984 51.5375 60.0984 51.7417Z" fill="#E0E0E0"/>
<path d="M140.676 62.2469H156.508V2.998H140.676V62.2469Z" fill="#EBEBEB"/>
<path d="M152.055 63.0066C152.055 63.0066 152.129 62.9004 152.243 62.6798C152.358 62.4593 152.505 62.1325 152.693 61.6996C153.239 60.4118 153.626 59.0621 153.844 57.6805C154.25 55.4596 153.927 53.167 152.921 51.1454C152.253 49.8986 151.288 48.8353 150.111 48.0494C148.777 47.1391 147.153 46.7549 145.553 46.9711C144.681 47.1082 143.864 47.4843 143.192 48.0575C142.825 48.3604 142.532 48.743 142.336 49.1762C142.139 49.6093 142.044 50.0817 142.057 50.5572C142.102 51.0463 142.245 51.5214 142.478 51.9538C142.711 52.3861 143.029 52.7669 143.413 53.0732C144.179 53.7178 145.121 54.1163 146.117 54.2169C147.144 54.2975 148.176 54.1569 149.144 53.8046C150.112 53.4523 150.994 52.8965 151.729 52.1747C153.317 50.6684 154.304 48.6362 154.506 46.4564C154.731 44.2202 154.451 41.9621 153.689 39.8478C152.984 37.5866 151.636 35.5796 149.809 34.0724C148.826 33.2951 147.635 32.8261 146.386 32.7246C145.734 32.6705 145.077 32.7619 144.464 32.9921C143.851 33.2224 143.297 33.5858 142.841 34.0561C142.357 34.5575 142.067 35.2149 142.024 35.9104C142.006 36.5963 142.197 37.2714 142.571 37.8464C143.311 38.9617 144.457 39.7443 145.765 40.0275C147.031 40.2744 148.339 40.1889 149.562 39.7794C150.784 39.37 151.88 38.6505 152.742 37.6912C154.328 35.8121 155.278 33.4783 155.454 31.0254C155.724 28.6971 155.493 26.3379 154.776 24.1064C154.088 21.9205 152.638 20.0539 150.691 18.8456C149.767 18.2519 148.717 17.8828 147.625 17.7679C146.533 17.653 145.429 17.7955 144.401 18.184C143.883 18.3891 143.425 18.721 143.068 19.1491C142.711 19.5772 142.467 20.088 142.359 20.6346C142.268 21.1556 142.285 21.6898 142.408 22.2041C142.532 22.7184 142.76 23.2018 143.078 23.6244C143.723 24.3669 144.577 24.898 145.529 25.1486C146.48 25.3992 147.485 25.3577 148.412 25.0295C150.087 24.4432 151.557 23.3851 152.644 21.9825C154.577 19.6874 155.69 16.8126 155.805 13.8136C155.876 11.5772 155.37 9.36024 154.335 7.37652C153.707 6.13072 152.879 4.99649 151.884 4.01911C151.533 3.69236 151.255 3.45546 151.067 3.30842C150.879 3.16138 150.773 3.08786 150.765 3.1042C152.145 4.35322 153.283 5.8458 154.122 7.50723C155.078 9.46126 155.527 11.6242 155.429 13.7973C155.265 16.6723 154.16 19.4135 152.284 21.5985C151.251 22.8816 149.874 23.8448 148.314 24.376C147.501 24.6548 146.623 24.6865 145.791 24.467C144.959 24.2475 144.211 23.7866 143.642 23.1425C143.382 22.7957 143.195 22.3994 143.094 21.9779C142.993 21.5565 142.979 21.1188 143.053 20.6918C143.145 20.252 143.347 19.843 143.642 19.504C143.937 19.165 144.313 18.9073 144.736 18.7558C145.666 18.4115 146.663 18.2905 147.648 18.4026C148.632 18.5147 149.577 18.8567 150.405 19.4011C152.209 20.5295 153.545 22.2694 154.171 24.3024C154.849 26.4354 155.064 28.6885 154.8 30.9111C154.636 33.209 153.749 35.3961 152.268 37.1603C151.494 38.0195 150.511 38.6648 149.415 39.034C148.319 39.4031 147.147 39.4837 146.01 39.2678C144.892 39.033 143.91 38.3705 143.274 37.4217C142.964 36.9936 142.812 36.4711 142.845 35.9435C142.878 35.416 143.093 34.9163 143.454 34.5299C143.844 34.1533 144.311 33.8662 144.823 33.6884C145.335 33.5107 145.88 33.4466 146.419 33.5006C147.499 33.6043 148.526 34.0186 149.376 34.6933C151.092 36.1085 152.358 37.9935 153.019 40.1174C153.758 42.1297 154.037 44.2816 153.836 46.4156C153.654 48.43 152.749 50.3103 151.288 51.709C150.625 52.3753 149.827 52.891 148.947 53.2208C148.068 53.5507 147.127 53.687 146.19 53.6205C144.45 53.4735 142.751 52.1502 142.645 50.5491C142.629 50.1579 142.704 49.7685 142.865 49.4113C143.025 49.0541 143.265 48.7389 143.568 48.4905C144.159 47.9779 144.88 47.6386 145.651 47.5102C147.125 47.2961 148.626 47.6335 149.866 48.4578C150.983 49.196 151.907 50.1903 152.562 51.3578C153.549 53.2941 153.9 55.4921 153.567 57.6396C153.38 59.0067 153.043 60.3491 152.562 61.6424C152.227 62.5328 152.031 62.9903 152.055 63.0066Z" fill="#FAFAFA"/>
<path d="M30.2248 62.2469H52.2236L52.2236 2.67029e-05H30.2248L30.2248 62.2469Z" fill="#E0E0E0"/>
<path d="M156.508 62.2469H177.085V6.83738H156.508V62.2469Z" fill="#E0E0E0"/>
<path d="M177.6 34.4645C178.594 35.3657 179.691 36.1471 180.867 36.7926C182.162 37.4349 183.568 37.8258 185.009 37.9444C186.767 38.073 188.529 37.7643 190.139 37.0459C191.879 36.3107 193.472 35.3549 195.04 34.7994C196.461 34.2211 198.023 34.0789 199.525 34.391C200.539 34.6149 201.452 35.166 202.123 35.9594C202.388 36.2338 202.567 36.5805 202.637 36.956C202.58 36.956 202.425 36.6129 201.943 36.1391C201.249 35.4679 200.375 35.0136 199.427 34.8321C198.009 34.6108 196.557 34.792 195.236 35.3549C193.7 35.9186 192.14 36.8743 190.335 37.6422C188.631 38.4008 186.76 38.7074 184.903 38.5326C183.397 38.3855 181.938 37.9324 180.614 37.2011C179.721 36.7202 178.91 36.0997 178.212 35.3631C177.952 35.106 177.744 34.8009 177.6 34.4645Z" fill="#FAFAFA"/>
<path d="M177.15 39.954C178.147 40.8493 179.244 41.6277 180.418 42.274C181.712 42.919 183.118 43.31 184.559 43.4258C186.319 43.5569 188.084 43.251 189.698 42.5354C191.429 41.792 193.022 40.8362 194.599 40.2807C196.023 39.7022 197.587 39.56 199.092 39.8723C200.107 40.0995 201.019 40.6533 201.689 41.4489C201.954 41.7198 202.131 42.0643 202.196 42.4373C202.147 42.4373 201.992 42.0942 201.502 41.6204C200.817 40.9413 199.943 40.4856 198.994 40.3134C197.576 40.0847 196.123 40.2631 194.803 40.8281C193.267 41.3917 191.707 42.3475 189.902 43.1153C188.197 43.8729 186.327 44.1795 184.469 44.0058C182.961 43.8598 181.499 43.4066 180.173 42.6742C179.283 42.1955 178.475 41.5778 177.779 40.8444C177.518 40.5877 177.305 40.2861 177.15 39.954Z" fill="#FAFAFA"/>
<path d="M177.477 22.203C177.477 22.0314 183.146 21.8926 190.131 21.8926C197.115 21.8926 202.784 22.0314 202.784 22.203C202.784 22.3745 197.123 22.5134 190.131 22.5134C183.138 22.5134 177.477 22.3745 177.477 22.203Z" fill="#FAFAFA"/>
<path d="M168.164 15.7578C167.594 15.5286 166.967 15.4773 166.367 15.6107C166.066 15.6911 165.786 15.8356 165.547 16.0344C165.307 16.2333 165.113 16.4817 164.979 16.7626C164.875 17.1132 164.87 17.4857 164.964 17.8391C165.058 18.1925 165.247 18.5133 165.511 18.7663C165.775 19.0194 166.103 19.1949 166.46 19.2737C166.818 19.3525 167.189 19.3316 167.535 19.2132C167.811 19.0666 168.051 18.8622 168.24 18.614C168.429 18.3659 168.562 18.0798 168.63 17.7755C168.745 17.1735 168.668 16.5503 168.409 15.9947C168.409 15.9947 168.614 16.0682 168.81 16.3786C169.064 16.83 169.153 17.3554 169.063 17.8653C169.011 18.2538 168.868 18.6246 168.647 18.948C168.426 19.2715 168.132 19.5386 167.789 19.7279C167.336 19.9188 166.836 19.9728 166.353 19.8832C165.869 19.7936 165.423 19.5643 165.068 19.2237C164.714 18.883 164.467 18.4459 164.358 17.9664C164.249 17.4869 164.283 16.986 164.456 16.5257C164.632 16.1744 164.888 15.869 165.202 15.6336C165.517 15.3983 165.882 15.2394 166.269 15.1696C166.776 15.0653 167.304 15.1374 167.764 15.3738C168.075 15.5617 168.164 15.7414 168.164 15.7578Z" fill="#FAFAFA"/>
<path d="M166.833 56.7002C166.653 56.7002 166.514 48.9316 166.514 39.3495C166.514 29.7674 166.653 21.9988 166.833 21.9988C167.013 21.9988 167.143 29.7674 167.143 39.3495C167.143 48.9316 167.005 56.7002 166.833 56.7002Z" fill="#FAFAFA"/>
<path d="M223.917 61.9283H10.9707V74.0836H223.917V61.9283Z" fill="#EBEBEB"/>
<path d="M223.917 61.9283H205.325V74.0836H223.917V61.9283Z" fill="#E0E0E0"/>
<path d="M234.626 61.0133L233.589 144.671C233.409 158.901 236.04 179.838 258.561 179.086C278.044 176.971 283.207 158.533 283.362 145.251C283.435 138.953 283.509 133.708 283.558 133.055C283.558 133.055 304.879 131.323 306.676 110.264C307.55 100.085 307.632 78.9767 307.493 59.8779C307.414 49.9859 303.613 40.4865 296.846 33.2704C290.08 26.0544 280.844 21.651 270.978 20.9368L268.944 20.7816C246.912 20.4467 234.332 38.9574 234.626 61.0133Z" fill="#FFBE9D"/>
<path d="M283.558 133.038C283.558 133.038 270.21 132.85 256.707 122.925C256.707 122.925 262.278 138.806 283.444 138.446L283.558 133.038Z" fill="#EB996E"/>
<path d="M271.484 68.4961C271.059 68.9208 268.633 66.9603 265.104 66.8623C261.575 66.7643 258.937 68.4961 258.569 68.0468C258.39 67.8425 258.822 67.0665 259.974 66.2578C261.523 65.2231 263.358 64.7028 265.219 64.771C267.062 64.825 268.838 65.4725 270.283 66.6172C271.345 67.4995 271.688 68.3 271.484 68.4961Z" fill="#263238"/>
<path d="M270.741 75.7908C270.692 76.5334 270.357 77.2277 269.804 77.7265C269.252 78.2253 268.527 78.4892 267.784 78.4621C267.42 78.4643 267.059 78.3938 266.723 78.2546C266.387 78.1154 266.082 77.9103 265.826 77.6515C265.571 77.3927 265.369 77.0854 265.234 76.7476C265.099 76.4099 265.032 76.0484 265.039 75.6847C265.083 74.9414 265.417 74.245 265.968 73.7443C266.519 73.2436 267.244 72.9783 267.988 73.0053C268.353 73.003 268.715 73.0738 269.052 73.2134C269.389 73.353 269.695 73.5586 269.951 73.8182C270.208 74.0777 270.41 74.386 270.545 74.7247C270.681 75.0635 270.747 75.426 270.741 75.7908Z" fill="#263238"/>
<path d="M280.323 93.0353C280.323 92.8475 282.357 92.6514 285.649 92.4717C286.466 92.4717 287.283 92.341 287.463 91.7855C287.642 91.23 287.414 90.2824 287.087 89.3348L285.102 82.8569C282.357 73.6424 280.437 66.0862 280.813 65.98C281.189 65.8738 283.705 73.2585 286.45 82.473C287.103 84.7439 287.729 86.9223 288.329 89.0081C288.574 89.972 289.031 91.083 288.525 92.2756C288.381 92.5578 288.176 92.8042 287.924 92.9965C287.672 93.1887 287.381 93.3221 287.071 93.3866C286.605 93.4777 286.13 93.5079 285.657 93.4765C282.357 93.3539 280.323 93.2232 280.323 93.0353Z" fill="#263238"/>
<path d="M269.981 55.2298C269.638 56.0467 266.812 55.4177 263.446 55.5974C260.081 55.7771 257.287 56.5123 256.911 55.7607C256.74 55.4013 257.262 54.6825 258.414 53.9799C259.931 53.1378 261.623 52.6622 263.357 52.5913C265.09 52.5203 266.816 52.856 268.397 53.5715C269.556 54.176 270.128 54.854 269.981 55.2298Z" fill="#263238"/>
<path d="M303.49 61.7649C303.122 62.4021 300.369 61.6914 297.028 61.5934C293.687 61.4953 290.926 61.9119 290.575 61.2503C290.42 60.9317 290.967 60.3599 292.127 59.8534C293.696 59.2262 295.382 58.9474 297.069 59.0365C298.77 59.0889 300.44 59.5009 301.97 60.2455C303.122 60.8418 303.653 61.4627 303.49 61.7649Z" fill="#263238"/>
<path d="M235.206 76.7303C234.863 76.5506 221.042 71.3878 220.445 85.8386C219.849 100.289 234.479 97.8958 234.52 97.4792C234.561 97.0626 235.206 76.7303 235.206 76.7303Z" fill="#FFBE9D"/>
<path d="M230.33 91.8264C230.272 91.7773 230.076 91.9979 229.643 92.1694C229.038 92.4117 228.362 92.4117 227.756 92.1694C226.253 91.5404 225.069 89.0653 225.11 86.4512C225.113 85.2153 225.392 83.9957 225.926 82.8814C226.08 82.4363 226.34 82.0352 226.683 81.7123C227.026 81.3893 227.442 81.1542 227.895 81.0271C228.188 80.9612 228.495 81.0004 228.763 81.1378C229.03 81.2751 229.24 81.5019 229.357 81.7786C229.529 82.1871 229.431 82.473 229.504 82.4975C229.578 82.522 229.823 82.2688 229.733 81.6806C229.666 81.3193 229.479 80.9912 229.202 80.7494C228.814 80.435 228.319 80.2828 227.822 80.3246C227.224 80.4191 226.661 80.6645 226.185 81.0376C225.709 81.4107 225.336 81.8991 225.101 82.4567C224.437 83.6845 224.081 85.0553 224.064 86.4512C224.064 89.3594 225.42 92.1695 227.479 92.8393C227.863 92.967 228.27 93.0069 228.672 92.956C229.074 92.9051 229.458 92.7648 229.799 92.5452C230.297 92.1776 230.379 91.859 230.33 91.8264Z" fill="#EB996E"/>
<path d="M276.909 103.034C277.072 102.675 274.237 101.825 272.252 99.1702C271.421 98.0064 270.748 96.7372 270.251 95.3962C269.834 94.3506 269.508 93.6889 269.352 93.7624C269.197 93.8359 269.246 94.5221 269.475 95.6576C269.781 97.1865 270.417 98.6303 271.337 99.8891C272.286 101.146 273.56 102.121 275.022 102.707C276.124 103.132 276.876 103.165 276.909 103.034Z" fill="#263238"/>
<path d="M335.455 40.9588C335.19 40.1073 334.604 39.3924 333.821 38.9655C332.187 37.9935 330.268 38.1487 328.438 38.0915C322.815 37.9822 317.332 36.3168 312.598 33.28C310.393 30.1073 307.934 27.1186 305.246 24.3433C298.858 17.8081 293.606 13.2826 288.173 11.0933C281.148 8.2669 269.385 7.12325 262.033 9.04294C254.681 10.9626 248.17 16.9014 247.157 24.4168C243.049 20.9858 236.873 20.9858 231.882 22.9872L231.751 22.93C226.163 24.9151 223.002 30.7885 221.36 36.5067C219.718 42.2249 219.016 48.2699 216.001 53.3673C215.372 54.4292 214.629 55.7036 215.184 56.8146C215.435 57.2215 215.804 57.542 216.242 57.7333C216.68 57.9245 217.166 57.9774 217.635 57.8847C218.574 57.6788 219.459 57.278 220.233 56.7084L218.37 61.1767C220.394 61.5145 222.469 61.3775 224.432 60.7765C225.616 66.0862 227.029 72.1557 228.394 75.7582C230.722 75.7582 232.854 75.9216 234.291 77.2122C236.244 78.9686 237.118 82.2688 240.361 81.0189C241.995 80.3818 243.522 76.9345 244.078 75.2354C247.74 64.0266 248.952 52.1619 247.631 40.4441C249.95 37.9735 252.724 35.9737 255.8 34.5544L255.547 34.7749C261.437 32.7327 268.094 30.6905 273.674 33.4842C278.011 35.6326 280.552 40.1255 283.795 43.7117C286.787 47.0213 290.416 49.6919 294.466 51.5632C298.516 53.4344 302.903 54.4677 307.362 54.6008C307.672 60.5232 307.174 68.9045 307.485 74.8351L312.476 65.3429V65.3837C312.884 64.6894 313.227 63.9868 313.554 63.2843L313.66 63.0719C314.147 61.9204 314.693 60.7944 315.294 59.6982L315.343 59.7472C318.562 62.5818 323.291 58.2523 320.759 54.7968C320.259 54.1071 319.655 53.4983 318.97 52.9915C319.696 53.6938 320.591 54.1967 321.569 54.4514C322.546 54.7062 323.573 54.7042 324.549 54.4456C325.518 54.1504 326.362 53.5451 326.952 52.7229C327.543 51.9008 327.847 50.9073 327.817 49.8955C327.739 49.2131 327.481 48.5636 327.071 48.0127C326.661 47.4618 326.112 47.0292 325.481 46.7587C328.092 46.9696 330.708 46.401 332.996 45.1249C334.499 44.2181 335.953 42.8213 335.455 40.9588Z" fill="#263238"/>
<path d="M253.782 26.8347C253.029 27.4227 252.324 28.0701 251.675 28.7708C249.994 30.7766 248.868 33.1873 248.407 35.7633C248.046 37.5238 247.865 39.3167 247.868 41.1139C247.868 43.0581 248.015 45.133 248.162 47.3223C248.359 49.6204 248.411 51.9286 248.317 54.2332C248.255 55.4581 248.097 56.6763 247.844 57.8765C247.661 59.164 247.149 60.3825 246.357 61.4136C245.99 61.8227 245.523 62.1296 245.002 62.3043C244.48 62.479 243.923 62.5155 243.383 62.4102C242.349 62.2192 241.409 61.6871 240.712 60.899C239.356 59.3224 239.013 57.3128 238.678 55.5484L239.119 55.5974C238.487 57.1846 237.625 58.6707 236.562 60.0086C235.537 61.2492 234.075 62.0501 232.478 62.2468C231.732 62.3206 230.98 62.1878 230.305 61.8629C229.679 61.5348 229.165 61.0289 228.826 60.4088C228.515 59.8359 228.363 59.1899 228.385 58.5382C228.412 57.9324 228.649 57.3548 229.055 56.9044L229.284 57.1004C228.029 58.5371 226.488 59.6947 224.758 60.4987C224.301 60.7092 223.832 60.892 223.353 61.046C223.19 61.0979 223.024 61.1388 222.855 61.1685C223.004 61.0813 223.163 61.0127 223.329 60.9643C223.639 60.8336 224.105 60.6457 224.685 60.3517C226.357 59.5063 227.843 58.3341 229.055 56.9044L229.276 57.1086C228.933 57.5522 228.736 58.0909 228.711 58.651C228.686 59.211 228.835 59.765 229.137 60.2373C229.444 60.7904 229.911 61.2375 230.477 61.5198C231.088 61.8063 231.766 61.9193 232.437 61.8466C233.932 61.6539 235.295 60.8934 236.244 59.7227C237.264 58.4073 238.089 56.952 238.694 55.4013L238.997 54.7315L239.136 55.4585C239.479 57.223 239.838 59.1508 241.072 60.5804C241.7 61.2795 242.541 61.753 243.465 61.9282C243.922 62.0244 244.396 61.9997 244.84 61.8564C245.284 61.7131 245.683 61.4563 245.997 61.1114C246.743 60.1267 247.227 58.9686 247.402 57.7458C247.645 56.5717 247.801 55.3812 247.868 54.1842C247.964 51.8992 247.923 49.6106 247.746 47.3305C247.607 45.1412 247.468 43.05 247.492 41.0894C247.505 39.2653 247.708 37.4475 248.097 35.6653C248.594 33.0524 249.778 30.619 251.528 28.6156C252.176 27.9013 252.937 27.2996 253.782 26.8347Z" fill="#142683"/>
<path d="M318.954 47.3386L318.79 47.4775L318.259 47.8614C317.978 48.0748 317.68 48.266 317.369 48.4332C316.957 48.6878 316.528 48.9143 316.086 49.1113C313.273 50.3932 310.185 50.9547 307.1 50.745C302.499 50.4448 298.084 48.816 294.39 46.0561C290.175 43.0254 286.482 38.5652 283.468 33.4597C281.932 30.911 280.682 28.297 279.31 25.879C278.049 23.5297 276.462 21.3708 274.597 19.4664C272.913 17.7505 270.826 16.4839 268.527 15.7822C267.485 15.4934 266.405 15.3693 265.325 15.4146C264.33 15.4753 263.347 15.6648 262.4 15.9783C259.509 16.9726 257.093 19.0122 255.628 21.6965C255.145 22.7047 254.78 23.7656 254.542 24.8579C254.527 24.7851 254.527 24.7101 254.542 24.6373C254.542 24.4576 254.599 24.2534 254.64 23.992C254.816 23.1698 255.091 22.3718 255.457 21.6148C256.06 20.4237 256.858 19.3415 257.818 18.4126C259.091 17.1794 260.615 16.2349 262.286 15.6434C263.261 15.3036 264.278 15.0975 265.309 15.0307C266.431 14.9717 267.556 15.0903 268.641 15.382C271.015 16.0839 273.173 17.3735 274.915 19.1315C276.827 21.0656 278.447 23.2669 279.727 25.6666C281.115 28.1172 282.365 30.7068 283.885 33.2391C286.883 38.3038 290.526 42.715 294.651 45.713C298.268 48.4262 302.584 50.0501 307.092 50.3938C310.143 50.6347 313.206 50.133 316.021 48.9315C317.028 48.4563 318.007 47.9245 318.954 47.3386Z" fill="#142683"/>
<path d="M320.873 38.0751C320.648 38.2891 320.392 38.4681 320.114 38.6061C319.399 39.0388 318.654 39.4183 317.884 39.7416C316.736 40.2266 315.55 40.6146 314.338 40.9016C311.358 41.6073 308.266 41.7073 305.246 41.1956C304.018 40.9867 302.81 40.6724 301.636 40.2562C300.843 39.9866 300.073 39.6561 299.332 39.2678C299.037 39.152 298.762 38.9922 298.515 38.794C298.556 38.7123 299.716 39.3086 301.717 39.9295C302.886 40.2884 304.079 40.5614 305.287 40.7463C306.769 40.9623 308.267 41.0497 309.764 41.0078C311.258 40.9483 312.744 40.7652 314.208 40.4604C315.403 40.2006 316.577 39.851 317.72 39.4148C319.705 38.6714 320.824 37.9934 320.873 38.0751Z" fill="#142683"/>
<path d="M303.645 69.8194C303.228 70.2442 300.794 68.2918 297.265 68.1856C293.736 68.0794 291.106 69.8194 290.73 69.3701C290.542 69.1659 290.983 68.3898 292.127 67.5811C293.677 66.5442 295.516 66.0239 297.38 66.0944C299.22 66.1407 300.995 66.786 302.436 67.9324C303.506 68.8309 303.857 69.6315 303.645 69.8194Z" fill="#263238"/>
<path d="M300.051 76.812C300.003 77.5552 299.667 78.2504 299.115 78.7505C298.563 79.2506 297.838 79.5163 297.094 79.4913C296.73 79.4925 296.369 79.4209 296.033 79.2808C295.696 79.1407 295.392 78.9349 295.136 78.6755C294.88 78.4161 294.679 78.1082 294.544 77.77C294.409 77.4317 294.343 77.0699 294.349 76.7058C294.395 75.964 294.73 75.2696 295.281 74.7706C295.831 74.2717 296.555 74.0075 297.298 74.0345C297.663 74.0312 298.024 74.101 298.361 74.2397C298.698 74.3784 299.004 74.5832 299.261 74.8421C299.517 75.101 299.72 75.4087 299.855 75.7471C299.991 76.0854 300.058 76.4475 300.051 76.812Z" fill="#263238"/>
<path d="M431.66 153.836C431.66 147.718 425.811 147.718 425.811 147.718C423.581 144.793 421.073 145.855 421.073 145.855L411.597 152.243C410.208 154.637 400.977 163.68 400.977 163.68C398.469 161.817 398.469 158.092 395.463 153.575C392.457 149.058 385.661 149.58 385.661 149.58C385.661 149.58 390.954 161.556 391.51 169.006C392.065 176.456 387.425 197.238 387.425 197.238L414.26 204.786C414.26 204.786 415.951 193.349 418.949 192.459C422.559 191.356 424.569 186.03 424.569 186.03C428.466 178.122 436.389 166.637 437.5 160.78C438.611 154.923 431.66 153.836 431.66 153.836Z" fill="#FFBE9D"/>
<path d="M232.6 140.603C249.657 151.32 266.836 155.307 284.236 148.412L310.376 155.094L336.117 327.041L185.221 328.348L192.655 288.419L211.361 144.924L232.6 140.603Z" fill="#142683"/>
<path d="M310.393 155.094C310.393 155.094 330.742 163.541 338.51 178.343C346.279 193.145 358.753 234.708 358.753 234.708L381.74 192.483L424.414 203.389C424.414 203.389 392.653 290.992 384.681 298.965C375.948 307.714 352.16 316.479 340.528 309.682C328.895 302.886 326.51 277.097 326.51 277.097L310.393 155.094Z" fill="#142683"/>
<path d="M311.798 227.013C311.683 227.013 311.585 219.375 311.585 209.957C311.585 200.538 311.683 192.9 311.798 192.9C311.912 192.9 312.01 200.53 312.01 209.957C312.01 219.383 311.937 227.013 311.798 227.013Z" fill="#263238"/>
<path d="M319.762 164.922C319.488 165.877 319.158 166.815 318.774 167.732C318.128 169.463 317.279 171.857 316.446 174.536C315.612 177.216 314.967 179.683 314.518 181.472C314.312 182.445 314.056 183.408 313.75 184.355C313.734 184.081 313.759 183.806 313.823 183.538C313.905 183.024 314.036 182.289 314.224 181.382C314.599 179.576 315.212 177.093 316.045 174.397C316.879 171.702 317.777 169.308 318.496 167.609C318.855 166.792 319.158 166.073 319.386 165.608C319.479 165.362 319.605 165.131 319.762 164.922Z" fill="#263238"/>
<path d="M208.617 209.311L213.338 144.524C213.338 144.524 177.82 147.791 166.065 172.878C156.164 193.995 128.823 257.524 125.89 266.216C117.305 291.719 130.718 326.788 186.022 324.754L192.328 290.085L208.617 209.311Z" fill="#142683"/>
<path d="M168.842 297.306C168.928 297.094 169.026 296.886 169.136 296.686L170.035 294.946L173.425 288.574L174.552 286.458C174.946 285.657 175.502 284.948 176.186 284.375C176.981 283.805 177.945 283.517 178.923 283.558C179.919 283.596 180.906 283.755 181.863 284.032C183.906 284.584 185.886 285.347 187.77 286.311C188.781 286.817 189.737 287.427 190.621 288.133L190.947 288.419C191.078 288.538 191.174 288.69 191.225 288.86C191.323 289.148 191.384 289.447 191.405 289.75C191.459 290.334 191.473 290.921 191.446 291.506C191.336 293.776 191.112 296.039 190.776 298.287C190.482 300.46 190.147 302.551 189.812 304.536C189.142 308.514 188.472 312.084 187.9 315.074C187.328 318.063 186.855 320.449 186.512 322.156C186.356 322.973 186.226 323.61 186.136 324.084C186.101 324.31 186.052 324.534 185.989 324.754C185.99 324.524 186.012 324.294 186.054 324.068C186.111 323.626 186.209 322.973 186.348 322.132C186.659 320.408 187.083 317.99 187.606 315.025C188.129 312.059 188.783 308.449 189.428 304.47C189.746 302.485 190.073 300.386 190.367 298.229C190.661 296.073 190.939 293.802 191.021 291.498C191.058 290.93 191.058 290.359 191.021 289.791C191.003 289.513 190.951 289.239 190.866 288.974C190.834 288.868 190.775 288.772 190.694 288.696L190.384 288.427C189.527 287.734 188.595 287.139 187.606 286.654C185.741 285.705 183.78 284.955 181.757 284.416C180.83 284.139 179.873 283.977 178.906 283.934C178.014 283.884 177.13 284.128 176.39 284.628C175.741 285.164 175.215 285.832 174.846 286.589C174.438 287.316 174.03 288.01 173.686 288.68L170.182 294.995C169.774 295.705 169.455 296.277 169.21 296.694C169.109 296.91 168.986 297.116 168.842 297.306Z" fill="#263238"/>
<path d="M143.159 266.534C143.297 266.511 143.438 266.511 143.576 266.534L144.769 266.583C145.806 266.632 147.301 266.722 149.147 266.894C151.315 267.082 153.469 267.396 155.601 267.833C158.222 268.36 160.77 269.202 163.19 270.341C165.6 271.502 167.842 272.983 169.855 274.744C171.523 276.183 172.908 277.92 173.94 279.866C174.623 281.179 175.042 282.614 175.173 284.089C175.204 284.489 175.204 284.89 175.173 285.29C175.195 285.428 175.195 285.569 175.173 285.707C175.132 285.707 175.173 285.127 175.026 284.073C174.832 282.642 174.381 281.258 173.695 279.988C172.641 278.102 171.257 276.42 169.61 275.022C167.606 273.305 165.387 271.855 163.01 270.708C160.621 269.584 158.11 268.74 155.527 268.192C153.142 267.678 150.961 267.376 149.123 267.171C147.285 266.967 145.798 266.828 144.769 266.73L143.584 266.608C143.44 266.604 143.297 266.579 143.159 266.534Z" fill="#263238"/>
<path d="M181.169 263.258C180.947 264.132 180.649 264.985 180.279 265.807C179.674 267.359 178.768 269.475 177.73 271.795C176.693 274.115 175.794 276.092 175.059 277.717C174.733 278.562 174.345 279.381 173.899 280.168C174.122 279.295 174.417 278.443 174.781 277.619C175.394 276.067 176.301 273.952 177.338 271.632C178.375 269.312 179.274 267.343 180.009 265.709C180.337 264.866 180.725 264.047 181.169 263.258Z" fill="#263238"/>
<path d="M200.84 212.268C200.717 212.268 200.627 208.184 200.627 203.095C200.627 198.005 200.717 193.921 200.84 193.921C200.962 193.921 201.052 198.005 201.052 203.095C201.052 208.184 200.938 212.268 200.84 212.268Z" fill="#263238"/>
<g opacity="0.3">
<path opacity="0.3" d="M175.124 285.658C165.787 288.925 159.465 297.396 156.916 306.954C156.646 307.959 156.475 309.143 157.145 309.935C157.534 310.302 158.036 310.526 158.569 310.569C159.103 310.612 159.634 310.472 160.077 310.172C160.948 309.55 161.66 308.729 162.152 307.779C166.653 300.574 171.048 293.892 175.124 285.658Z" fill="black"/>
</g>
<g opacity="0.3">
<path opacity="0.3" d="M163.541 267.204C158.639 264.484 153.036 263.324 147.456 262.989C145.262 262.878 143.063 263.07 140.921 263.561C138.005 264.173 134.647 265.644 134.01 267.735C140.717 265.636 150.593 267.024 157.455 268.552C160.843 269.253 164.05 270.645 166.877 272.641C169.703 274.637 172.088 277.193 173.883 280.152C172.13 274.719 168.452 270.114 163.541 267.204Z" fill="black"/>
</g>
<path d="M195.595 184.682C195.458 184.349 195.348 184.004 195.269 183.653C195.097 182.991 194.811 182.019 194.452 180.867C192.444 174.772 189.151 169.178 184.796 164.464C183.979 163.565 183.269 162.83 182.77 162.373C182.503 162.136 182.257 161.876 182.035 161.597C182.33 161.785 182.604 162.004 182.852 162.25C183.383 162.691 184.118 163.378 184.984 164.26C187.231 166.579 189.194 169.156 190.833 171.939C192.473 174.719 193.773 177.687 194.705 180.777C194.994 181.712 195.234 182.661 195.424 183.62C195.519 183.967 195.577 184.323 195.595 184.682Z" fill="#263238"/>
<path d="M208.641 328.324L169.063 232.838C167.257 228.484 169.52 224.946 174.128 224.946H182.051C185.319 224.946 187.516 223.157 187.729 220.364L187.99 216.851C188.202 214.057 190.441 212.268 193.708 212.268H231.538C234.842 212.421 237.969 213.805 240.304 216.149L243.375 219.122C245.708 221.461 248.832 222.842 252.132 222.994H300.329C304.928 222.994 310.082 226.531 311.839 230.885L351.049 328.324H208.641Z" fill="#78D1F4"/>
<g opacity="0.3">
<path opacity="0.3" d="M208.641 328.324L169.063 232.838C167.257 228.484 169.52 224.946 174.128 224.946H182.051C185.319 224.946 187.516 223.157 187.729 220.364L187.99 216.851C188.202 214.057 190.441 212.268 193.708 212.268H231.538C234.842 212.421 237.969 213.805 240.304 216.149L243.375 219.122C245.708 221.461 248.832 222.842 252.132 222.994H300.329C304.928 222.994 310.082 226.531 311.839 230.885L351.049 328.324H208.641Z" fill="black"/>
</g>
<path d="M202.098 295.893L187.173 238.18C186.193 234.381 188.676 230.575 192.14 230.575H309.143C310.334 230.631 311.472 231.084 312.376 231.863C313.279 232.642 313.895 233.701 314.126 234.872L335.855 321.739C336.811 325.554 335.283 327.842 331.82 327.793L214.098 327.833C212.926 327.759 211.812 327.301 210.926 326.53C210.04 325.76 209.433 324.719 209.197 323.569L202.098 295.893Z" fill="#E0E0E0"/>
<path d="M210.185 325.685L203.829 234.798C203.776 234.036 203.879 233.27 204.134 232.549C204.389 231.829 204.789 231.168 205.31 230.609C205.831 230.049 206.462 229.603 207.163 229.298C207.864 228.993 208.62 228.835 209.384 228.835H330.61V325.685H210.185Z" fill="#EBEBEB"/>
<path d="M208.829 327.793L223.255 234.104C223.591 232.611 224.427 231.277 225.624 230.325C226.822 229.372 228.309 228.858 229.839 228.867H352.479C353.583 228.853 354.673 229.114 355.65 229.626C356.627 230.139 357.461 230.888 358.076 231.805C358.691 232.722 359.068 233.777 359.172 234.876C359.275 235.975 359.103 237.083 358.671 238.098L332.187 323.872L208.829 327.793Z" fill="#FAFAFA"/>
<path d="M208.641 328.283L238.417 240.533C238.981 238.778 240.083 237.244 241.567 236.149C243.05 235.054 244.84 234.453 246.684 234.43H373.081C377.165 234.43 380.024 238.605 378.725 242.599L351.066 328.324L208.641 328.283Z" fill="#78D1F4"/>
<g opacity="0.3">
<path opacity="0.3" d="M269.769 313.595C269.769 313.595 264.998 313.808 262.793 313.963C252.264 314.665 241.722 312.795 232.078 308.514C229.104 307.183 225.951 305.312 225.053 302.183C224.048 298.679 226.319 295.035 229.088 292.658C231.857 290.281 235.215 288.574 237.624 285.845C240.034 283.117 241.162 278.657 238.793 275.888L238.139 276.361C236.432 280.699 231.669 282.79 227.724 285.265C220.343 289.942 214.869 297.096 212.285 305.443C210.896 309.984 210.528 315.245 213.281 319.158C215.234 321.903 218.436 323.463 221.597 324.631C231.155 328.185 241.382 328.315 251.585 328.324C254.804 328.324 264.696 328.193 264.696 328.193C267.808 327.376 268.83 325.742 270.7 323.104C272.424 320.694 272.048 315.482 269.769 313.595Z" fill="black"/>
</g>
<path d="M269.769 313.595L236.783 308.637L223.982 301.285C223.144 300.815 222.436 300.145 221.923 299.333C221.409 298.522 221.106 297.595 221.041 296.637C221.041 296.596 221.041 296.563 221.041 296.522C221.008 295.334 221.338 294.164 221.986 293.167C222.633 292.171 223.569 291.395 224.668 290.943C228.753 289.235 235.165 286.956 237.91 282.153C241.848 275.242 237.91 273.813 237.91 273.813L210.373 284.841L190.882 298.107L186.953 320.187L214.147 329.067C214.147 329.067 244.453 330.782 252.81 329.843C261.167 328.904 261.175 325.007 261.175 325.007C262.727 324.525 265.872 321.739 265.864 319.199C269.948 315.392 269.761 313.595 269.761 313.595" fill="#FFBE9D"/>
<path d="M227.593 323.112C228.052 323.153 228.507 323.241 228.949 323.373C229.815 323.586 231.065 323.855 232.617 324.19C236.657 324.997 240.754 325.489 244.87 325.661C248.991 325.807 253.118 325.638 257.213 325.154C258.782 324.966 260.056 324.786 260.93 324.648C261.38 324.544 261.84 324.492 262.302 324.492C261.873 324.662 261.426 324.785 260.971 324.86C260.105 325.064 258.839 325.309 257.262 325.546C249.026 326.763 240.635 326.437 232.519 324.582C230.967 324.223 229.725 323.88 228.875 323.61C228.431 323.492 228.001 323.325 227.593 323.112Z" fill="#EB996E"/>
<path d="M230.607 318.014C231.072 318.056 231.532 318.144 231.98 318.276C232.854 318.488 234.128 318.766 235.713 319.093C239.822 319.881 243.988 320.343 248.17 320.473C252.358 320.59 256.549 320.399 260.71 319.901C262.302 319.705 263.593 319.526 264.484 319.379C264.939 319.275 265.405 319.223 265.872 319.223C265.435 319.388 264.984 319.511 264.524 319.591C263.642 319.803 262.36 320.049 260.759 320.294C256.587 320.909 252.369 321.158 248.154 321.037C243.94 320.911 239.748 320.392 235.631 319.485C234.054 319.125 232.788 318.791 231.922 318.513C231.466 318.397 231.025 318.23 230.607 318.014Z" fill="#EB996E"/>
<path d="M425.076 196.053L366.489 207.62C365.526 207.81 364.536 207.809 363.574 207.616C362.612 207.424 361.698 207.043 360.883 206.497C360.068 205.951 359.369 205.25 358.826 204.433C358.282 203.617 357.905 202.701 357.715 201.739L341.696 120.646C341.314 118.703 341.719 116.688 342.822 115.043C343.924 113.398 345.635 112.258 347.578 111.873L384.738 104.521L419.349 128.488L430.957 187.263C431.15 188.227 431.15 189.219 430.959 190.182C430.767 191.146 430.388 192.063 429.841 192.879C429.295 193.696 428.592 194.396 427.775 194.941C426.957 195.486 426.04 195.864 425.076 196.053Z" fill="#EBEBEB"/>
<path d="M384.738 104.529L389.239 127.353C389.416 128.249 389.767 129.101 390.274 129.861C390.78 130.621 391.431 131.273 392.19 131.782C392.948 132.29 393.799 132.644 394.695 132.823C395.59 133.002 396.512 133.003 397.408 132.826L419.349 128.496L384.738 104.529Z" fill="#F5F5F5"/>
<path d="M389.933 129.297C389.933 129.297 390.75 134.893 397.399 135.464C397.653 135.464 397.906 135.464 398.159 135.464C401.124 135.407 420.648 135.04 420.566 134.648C420.485 134.256 419.349 128.513 419.349 128.513L397.408 132.842C397.408 132.842 391.894 133.716 389.933 129.297Z" fill="#E0E0E0"/>
<path d="M425.076 196.053L425.394 195.955C425.708 195.879 426.017 195.781 426.317 195.661C427.493 195.19 428.533 194.432 429.34 193.455C429.991 192.666 430.473 191.751 430.754 190.767C431.035 189.783 431.11 188.751 430.973 187.737C430.549 185.368 429.961 182.632 429.34 179.568L419.178 128.513L419.251 128.627L384.64 104.701H384.795L363.36 108.94L352.144 111.154L349.301 111.718C348.352 111.867 347.415 112.088 346.499 112.379C344.973 112.951 343.684 114.021 342.84 115.416C341.997 116.81 341.648 118.449 341.851 120.066C342.063 121.381 342.366 122.721 342.619 124.044C343.142 126.699 343.656 129.338 344.179 131.96C345.208 137.199 346.224 142.354 347.226 147.424C349.228 157.561 351.155 167.339 352.993 176.66C353.908 181.316 354.801 185.856 355.673 190.278C356.108 192.483 356.536 194.662 356.955 196.813C357.16 197.883 357.372 198.945 357.576 199.999C357.733 201.041 357.984 202.066 358.328 203.062C358.908 204.464 359.911 205.65 361.196 206.457C362.481 207.263 363.985 207.65 365.5 207.563C366.464 207.49 367.444 207.236 368.4 207.065L379.461 204.892L412.847 198.357L421.906 196.617L424.267 196.176L425.084 196.037L424.267 196.216L421.914 196.698L412.847 198.536L379.493 205.194L368.433 207.392C367.461 207.609 366.48 207.778 365.492 207.898C363.906 207.991 362.33 207.588 360.982 206.747C359.635 205.906 358.581 204.667 357.968 203.201C357.614 202.181 357.354 201.131 357.192 200.064C356.988 199.018 356.776 197.956 356.563 196.886C356.138 194.746 355.705 192.565 355.272 190.351C354.401 185.94 353.5 181.404 352.569 176.742C350.731 167.429 348.795 157.651 346.785 147.514C345.778 142.443 344.759 137.289 343.73 132.05C343.207 129.428 342.692 126.789 342.161 124.134C341.916 122.803 341.614 121.496 341.402 120.123C341.225 118.731 341.44 117.316 342.023 116.039C342.864 114.18 344.41 112.731 346.319 112.012C347.257 111.716 348.216 111.49 349.187 111.334L352.029 110.77L363.245 108.556L384.697 104.308H384.778L384.852 104.357L419.455 128.341H419.513V128.415C423.671 149.654 427.118 167.217 429.519 179.495C430.108 182.566 430.671 185.287 431.088 187.664C431.309 189.336 430.958 191.034 430.092 192.481C429.226 193.929 427.895 195.041 426.317 195.636C426.016 195.756 425.704 195.849 425.386 195.914L425.076 196.053Z" fill="#263238"/>
<path d="M419.349 128.496C419.17 128.567 418.984 128.619 418.794 128.652L417.16 129.003L411.229 130.245L402.423 132.034L397.212 133.063C395.747 133.305 394.243 133.087 392.907 132.438C391.572 131.79 390.47 130.744 389.753 129.444C389.305 128.592 389.009 127.669 388.879 126.716C388.528 124.91 388.185 123.17 387.866 121.512C387.229 118.195 386.649 115.214 386.167 112.681C385.685 110.149 385.35 108.18 385.056 106.726C384.942 106.057 384.852 105.517 384.778 105.093C384.736 104.905 384.714 104.713 384.713 104.521C384.777 104.702 384.826 104.888 384.86 105.076C384.958 105.485 385.073 106.024 385.22 106.71C385.522 108.156 385.947 110.174 386.461 112.641C386.976 115.108 387.58 118.146 388.25 121.447C388.577 123.08 388.928 124.853 389.288 126.658C389.411 127.564 389.687 128.443 390.105 129.256C390.779 130.481 391.817 131.467 393.075 132.077C394.334 132.687 395.75 132.892 397.13 132.663L402.333 131.666L411.156 129.967L417.152 128.815L418.785 128.529C418.972 128.499 419.161 128.488 419.349 128.496Z" fill="#263238"/>
<path d="M387.654 125.115C387.654 125.229 380.768 126.691 372.239 128.382C363.711 130.073 356.759 131.347 356.718 131.225C356.678 131.102 363.588 129.656 372.133 127.957C380.678 126.258 387.629 125 387.654 125.115Z" fill="#263238"/>
<path d="M404.564 133.602C404.564 133.716 394.402 135.824 381.822 138.315C369.241 140.807 359.014 142.718 358.99 142.604C358.965 142.49 369.152 140.382 381.74 137.899C394.328 135.416 404.539 133.488 404.564 133.602Z" fill="#263238"/>
<path d="M406.81 144.989C406.81 145.104 396.648 147.211 384.068 149.695C371.488 152.178 361.26 154.106 361.236 153.992C361.211 153.877 371.398 151.77 383.986 149.278C396.574 146.787 406.794 144.875 406.81 144.989Z" fill="#263238"/>
<path d="M363.482 165.379C363.482 165.256 373.644 163.149 386.233 160.666C398.821 158.182 409.04 156.254 409.065 156.377C409.089 156.499 398.902 158.599 386.314 161.082C373.726 163.565 363.507 165.493 363.482 165.379Z" fill="#263238"/>
<path d="M411.311 167.756C411.311 167.87 401.149 169.986 388.561 172.47C375.972 174.953 365.753 176.873 365.737 176.758C365.72 176.644 375.891 174.536 388.479 172.053C401.067 169.57 411.287 167.642 411.311 167.756Z" fill="#263238"/>
<path d="M413.557 179.143C413.557 179.258 403.395 181.365 390.815 183.849C378.235 186.332 368.008 188.26 367.983 188.146C367.959 188.031 378.145 185.924 390.734 183.432C403.322 180.941 413.533 179.029 413.557 179.143Z" fill="#263238"/>
<path d="M384.856 164.359L341.86 172.849C339.992 173.217 338.777 175.031 339.146 176.898L342.226 192.494C342.594 194.362 344.408 195.577 346.275 195.208L389.271 186.718C391.139 186.349 392.354 184.536 391.985 182.668L388.906 167.073C388.537 165.205 386.724 163.99 384.856 164.359Z" fill="#78D1F4"/>
<path d="M352.119 178.367L355.959 177.608C358.72 177.06 360.942 178.351 361.448 180.875C361.954 183.4 360.386 185.474 357.625 186.022L353.786 186.781L352.119 178.367ZM357.208 184.47C357.566 184.417 357.909 184.292 358.217 184.103C358.525 183.913 358.791 183.663 359 183.368C359.208 183.073 359.355 182.739 359.43 182.385C359.506 182.032 359.509 181.667 359.439 181.312C359.369 180.957 359.228 180.62 359.025 180.322C358.821 180.023 358.559 179.769 358.254 179.575C357.949 179.38 357.608 179.25 357.252 179.191C356.895 179.133 356.53 179.147 356.179 179.233L354.39 179.585L355.428 184.821L357.208 184.47Z" fill="white"/>
<path d="M362.388 180.728C362.152 179.813 362.197 178.848 362.516 177.958C362.835 177.068 363.414 176.295 364.177 175.738C364.941 175.181 365.854 174.866 366.798 174.833C367.743 174.801 368.676 175.053 369.476 175.556C370.276 176.06 370.906 176.792 371.285 177.657C371.664 178.523 371.775 179.483 371.603 180.412C371.431 181.342 370.984 182.198 370.319 182.87C369.655 183.543 368.804 184 367.877 184.184C367.289 184.335 366.676 184.365 366.076 184.272C365.476 184.178 364.901 183.963 364.387 183.639C363.873 183.316 363.431 182.891 363.087 182.39C362.743 181.89 362.505 181.324 362.388 180.728ZM369.65 179.291C369.535 178.772 369.27 178.3 368.888 177.932C368.506 177.563 368.023 177.316 367.501 177.221C366.979 177.126 366.441 177.187 365.953 177.396C365.466 177.606 365.051 177.955 364.761 178.399C364.471 178.843 364.318 179.363 364.322 179.894C364.326 180.424 364.487 180.942 364.784 181.382C365.081 181.822 365.501 182.164 365.992 182.366C366.482 182.568 367.022 182.62 367.542 182.517C367.899 182.457 368.24 182.324 368.543 182.126C368.846 181.927 369.104 181.668 369.302 181.365C369.5 181.062 369.634 180.721 369.693 180.364C369.753 180.007 369.738 179.642 369.65 179.291Z" fill="white"/>
<path d="M372.574 178.719C372.448 177.797 372.595 176.859 372.998 176.021C373.402 175.183 374.042 174.482 374.841 174.006C375.64 173.529 376.561 173.298 377.49 173.342C378.419 173.385 379.314 173.701 380.065 174.25L379.044 175.655C378.724 175.394 378.349 175.208 377.948 175.109C377.547 175.01 377.129 175.001 376.724 175.084C376.369 175.153 376.031 175.292 375.73 175.493C375.428 175.693 375.169 175.951 374.968 176.251C374.766 176.551 374.625 176.889 374.554 177.243C374.482 177.598 374.481 177.963 374.551 178.318C374.621 178.674 374.76 179.011 374.96 179.313C375.16 179.614 375.418 179.873 375.719 180.075C376.019 180.277 376.356 180.417 376.711 180.489C377.066 180.56 377.431 180.561 377.786 180.491C378.194 180.417 378.581 180.251 378.915 180.004C379.249 179.758 379.522 179.438 379.714 179.07L381.201 179.985C380.716 180.778 380.01 181.411 379.168 181.806C378.327 182.2 377.388 182.338 376.469 182.203C375.55 182.068 374.69 181.666 373.998 181.047C373.305 180.427 372.81 179.617 372.574 178.719Z" fill="white"/>
<path d="M415.861 135.71C415.861 135.71 420.191 130.228 423.524 133.259C426.857 136.29 425.893 137.899 422.707 142.743C422.707 142.743 429.781 142.367 427.51 149.638C427.51 149.638 434.56 148.821 433.882 154.8C433.882 154.8 439.208 160.004 436.439 163.361C433.669 166.719 423.63 172.78 421.097 171.742C418.565 170.705 418.541 167.103 418.541 167.103C418.541 167.103 415.526 165.747 414.693 164.162C413.86 162.577 415.289 160.339 415.289 160.339C415.289 160.339 412.749 157.741 412.12 157.022C411.491 156.303 412.463 152.938 412.463 152.938L416.547 149C416.547 149 410.96 151.451 409.792 150.503C408.624 149.556 407.341 148.78 408.558 147.089C409.775 145.398 414.276 141.616 414.276 141.616L415.861 135.71Z" fill="#FFBE9D"/>
<path d="M419.12 167.552C419.675 166.767 420.287 166.025 420.95 165.33C422.401 163.479 424.148 161.88 426.121 160.6C428.137 159.489 430.075 158.242 431.921 156.867C432.616 156.225 433.276 155.546 433.898 154.833C433.592 155.77 433.025 156.6 432.264 157.226C430.965 158.517 428.792 159.767 426.546 161.172C424.63 162.43 422.889 163.935 421.367 165.649C420.726 166.401 419.967 167.043 419.12 167.552Z" fill="#EB996E"/>
<path d="M415.208 161.425C415.077 161.295 417.658 158.484 421.008 155.16C422.682 153.526 424.12 151.892 425.353 150.953C425.961 150.353 426.707 149.912 427.526 149.67C427.575 149.76 426.767 150.25 425.664 151.304C424.561 152.358 423.172 153.967 421.481 155.625C418.132 158.966 415.338 161.556 415.208 161.425Z" fill="#EB996E"/>
<path d="M416.539 149.017C416.408 148.853 418.009 147.579 419.807 145.88C421.604 144.181 422.502 142.392 422.674 142.457C422.845 142.522 422.176 144.597 420.28 146.362C418.385 148.126 416.629 149.147 416.539 149.017Z" fill="#EB996E"/>
<path d="M415.861 135.685C415.86 135.824 415.838 135.961 415.796 136.094C415.722 136.396 415.624 136.772 415.51 137.245C415.24 138.307 414.856 139.778 414.374 141.657V141.697C413.558 142.416 412.643 143.241 411.654 144.148C410.55 145.126 409.538 146.203 408.632 147.367C408.42 147.664 408.313 148.023 408.329 148.388C408.392 148.761 408.586 149.101 408.877 149.343C409.189 149.636 409.519 149.909 409.865 150.16C410.029 150.27 410.213 150.347 410.407 150.385C410.6 150.422 410.799 150.421 410.993 150.381C412.891 150.064 414.737 149.493 416.482 148.682L417.789 148.143L416.727 149.237L412.683 153.191L412.749 153.101C412.438 153.732 412.258 154.419 412.222 155.121C412.185 155.824 412.292 156.526 412.536 157.186C413.373 158.479 414.462 159.591 415.739 160.453L416.016 160.657L415.788 160.919C414.905 161.964 414.285 163.614 415.436 164.636C416.572 165.7 417.864 166.584 419.268 167.258L418.794 167.519V167.413C418.884 167.511 418.606 167.176 418.99 167.699C419.905 167.274 419.251 167.527 419.455 167.454V167.936C419.465 168.157 419.487 168.378 419.521 168.597C419.578 169.039 419.696 169.471 419.872 169.88C420.037 170.284 420.282 170.65 420.591 170.958C420.869 171.263 421.234 171.474 421.637 171.563C422.555 171.579 423.466 171.398 424.308 171.032C425.217 170.692 426.104 170.293 426.963 169.839C428.597 168.985 430.177 168.03 431.692 166.98C433.178 165.989 434.563 164.853 435.826 163.59C436.435 163.048 436.825 162.301 436.921 161.491C436.968 160.672 436.819 159.855 436.488 159.105C435.815 157.586 434.871 156.202 433.702 155.021L433.604 154.915V154.759C433.705 153.978 433.624 153.184 433.367 152.439C433.089 151.736 432.586 151.145 431.938 150.757C430.599 150.051 429.079 149.766 427.575 149.94H427.175L427.273 149.539C427.379 149.098 427.502 148.657 427.592 148.224C427.667 147.796 427.703 147.361 427.698 146.925C427.723 146.096 427.463 145.283 426.963 144.622C426.425 144.056 425.769 143.617 425.042 143.334C424.315 143.052 423.534 142.933 422.756 142.988H422.282L422.535 142.604C423.363 141.408 424.124 140.167 424.814 138.887C425.114 138.313 425.31 137.691 425.394 137.049C425.445 136.454 425.317 135.857 425.027 135.334C424.473 134.365 423.714 133.529 422.805 132.883C422.407 132.655 421.966 132.513 421.51 132.467C421.054 132.42 420.593 132.47 420.158 132.614C418.929 133.049 417.813 133.752 416.89 134.672C416.556 134.974 416.319 135.228 416.147 135.391C415.976 135.554 415.91 135.644 415.894 135.636C415.95 135.533 416.018 135.437 416.098 135.35C416.311 135.077 416.54 134.818 416.784 134.574C417.178 134.167 417.604 133.793 418.059 133.455C418.669 132.969 419.36 132.596 420.101 132.352C420.572 132.185 421.074 132.12 421.573 132.162C422.072 132.204 422.556 132.353 422.993 132.597L423.671 133.087L424.283 133.676C424.713 134.106 425.087 134.589 425.394 135.113C425.725 135.702 425.876 136.375 425.827 137.049C425.749 137.747 425.547 138.424 425.231 139.051C424.55 140.357 423.795 141.622 422.968 142.841L422.748 142.457C423.578 142.438 424.406 142.556 425.198 142.808C426.06 143.067 426.824 143.576 427.396 144.271C427.978 145.015 428.284 145.939 428.262 146.885C428.274 147.358 428.241 147.831 428.164 148.298C428.074 148.763 427.943 149.221 427.829 149.687L427.526 149.311C429.159 149.124 430.81 149.434 432.264 150.201C433.028 150.657 433.619 151.352 433.947 152.178C434.248 153.017 434.349 153.915 434.241 154.8L434.143 154.539C435.379 155.759 436.376 157.2 437.084 158.787C437.457 159.631 437.625 160.552 437.574 161.474C437.524 161.956 437.392 162.426 437.182 162.863C436.952 163.267 436.678 163.645 436.365 163.99C435.07 165.289 433.653 166.459 432.134 167.487C430.596 168.554 428.991 169.523 427.33 170.386C426.447 170.851 425.536 171.261 424.602 171.612C423.654 172.021 422.627 172.214 421.596 172.175C421.076 172.037 420.598 171.776 420.201 171.413C419.804 171.05 419.501 170.597 419.317 170.092C419.12 169.63 418.986 169.144 418.916 168.646C418.916 168.401 418.859 168.156 418.851 167.911V167.307C419.047 167.233 418.402 167.478 419.308 167.054C419.692 167.568 419.423 167.241 419.504 167.339V167.527L419.455 168.017L419.023 167.789C417.545 167.081 416.188 166.144 415.003 165.011C414.703 164.693 414.47 164.318 414.317 163.909C414.193 163.484 414.173 163.035 414.26 162.602C414.448 161.802 414.829 161.062 415.371 160.445L415.42 160.911C414.066 159.988 412.915 158.799 412.038 157.414C411.686 156.666 411.559 155.832 411.671 155.013C411.751 154.24 411.952 153.485 412.267 152.774V152.725H412.308L416.392 148.804L416.686 149.254C414.884 150.069 412.979 150.637 411.025 150.945C410.512 151.026 409.987 150.903 409.563 150.601C409.205 150.329 408.861 150.037 408.534 149.727C408.176 149.406 407.942 148.97 407.872 148.494C407.857 148.03 407.994 147.573 408.264 147.195C409.2 146.008 410.248 144.914 411.393 143.927C412.406 143.004 413.345 142.196 414.178 141.477L414.138 141.55C414.677 139.688 415.11 138.217 415.412 137.164L415.763 136.036C415.786 135.917 415.819 135.799 415.861 135.685Z" fill="#EB996E"/>
<path d="M118.334 179.756H67.9485C67.1203 179.756 66.3002 179.593 65.5351 179.276C64.77 178.959 64.0748 178.495 63.4892 177.909C62.9036 177.324 62.4391 176.628 62.1221 175.863C61.8052 175.098 61.6421 174.278 61.6421 173.45V103.679C61.6421 102.007 62.3065 100.403 63.4892 99.2201C64.6719 98.0375 66.2759 97.373 67.9485 97.373H99.9215L124.665 122.876V173.45C124.665 174.28 124.501 175.102 124.183 175.869C123.864 176.636 123.397 177.332 122.809 177.918C122.221 178.504 121.523 178.968 120.755 179.283C119.987 179.599 119.164 179.759 118.334 179.756Z" fill="#EBEBEB"/>
<path d="M99.9216 97.373V116.978C99.9216 118.534 100.54 120.026 101.64 121.126C102.739 122.226 104.231 122.844 105.787 122.844H124.665L99.9216 97.373Z" fill="#F5F5F5"/>
<path d="M100.175 118.735C100.175 118.735 99.9297 123.497 105.346 125.057C105.55 125.118 105.757 125.167 105.967 125.204C108.417 125.637 124.665 128.529 124.665 128.153V122.876H105.787C105.787 122.876 101.073 122.721 100.175 118.735Z" fill="#E0E0E0"/>
<path d="M118.334 179.756C118.334 179.756 118.71 179.756 119.421 179.625C120.471 179.43 121.454 178.972 122.28 178.294C122.944 177.749 123.488 177.071 123.878 176.305C124.267 175.539 124.494 174.7 124.543 173.842C124.543 171.808 124.543 169.447 124.543 166.817C124.543 156.254 124.502 141.142 124.469 122.876L124.518 122.999L99.7581 97.5201L99.9052 97.5773H69.3781C68.5601 97.548 67.741 97.578 66.9274 97.6671C65.3379 97.9308 63.9169 98.8116 62.9737 100.118C62.3153 101.026 61.9273 102.102 61.8545 103.222C61.8545 104.341 61.8545 105.509 61.8545 106.645V126.756C61.8545 135.473 61.8545 143.911 61.8545 151.908C61.8545 155.911 61.8545 159.824 61.8545 163.614V169.227C61.8545 170.15 61.8545 171.064 61.8545 171.971C61.8124 172.858 61.8534 173.747 61.9771 174.626C62.2231 175.88 62.8543 177.027 63.7827 177.905C64.711 178.784 65.8902 179.351 67.1561 179.527C67.973 179.625 68.7899 179.576 69.6068 179.593H79.1235L107.837 179.666L115.647 179.707H117.672H118.367C118.367 179.707 118.13 179.707 117.672 179.707H115.647H107.837L79.1235 179.773H69.615C68.7703 179.795 67.925 179.773 67.0826 179.707C66.2152 179.594 65.3808 179.302 64.6319 178.849C63.8585 178.384 63.19 177.763 62.6684 177.027C62.1468 176.29 61.7834 175.453 61.6013 174.569C61.4767 173.668 61.4329 172.758 61.4706 171.849V163.639C61.4706 159.849 61.4706 155.936 61.4706 151.933C61.4706 143.911 61.4706 135.497 61.4706 126.781V113.474C61.4706 111.219 61.4706 108.957 61.4706 106.669C61.4706 105.517 61.4706 104.398 61.4706 103.214C61.5518 102.019 61.9649 100.87 62.6632 99.8972C63.6715 98.4912 65.1961 97.5423 66.9029 97.2587C67.7164 97.1676 68.5354 97.1348 69.3536 97.1606H99.9787L100.044 97.226L124.763 122.746L124.82 122.803V122.868C124.82 141.134 124.763 156.246 124.739 166.809C124.739 169.447 124.739 171.792 124.698 173.85C124.638 174.724 124.399 175.576 123.996 176.353C123.593 177.13 123.033 177.816 122.353 178.367C121.508 179.048 120.5 179.499 119.429 179.675C119.159 179.72 118.886 179.744 118.612 179.748L118.334 179.756Z" fill="#263238"/>
<path d="M124.665 122.876C124.504 122.913 124.34 122.93 124.175 122.925H122.786L117.673 122.999L110.092 123.04H105.607C104.774 123.017 103.955 122.824 103.2 122.471C102.446 122.118 101.772 121.614 101.22 120.989C100.664 120.351 100.245 119.606 99.9869 118.8C99.7593 118.021 99.6654 117.209 99.7092 116.398C99.7092 114.846 99.7092 113.343 99.7092 111.914C99.7092 109.071 99.7092 106.506 99.7501 104.333C99.7909 102.16 99.7991 100.485 99.8236 99.2192V97.8305C99.8193 97.6657 99.8358 97.5011 99.8726 97.3404C99.8845 97.5036 99.8845 97.6674 99.8726 97.8305C99.8726 98.19 99.8726 98.6474 99.9134 99.2192C99.9134 100.485 99.9543 102.217 99.9788 104.333C100.003 106.449 99.9788 109.071 100.028 111.914C100.028 113.343 100.028 114.846 100.028 116.398C99.9834 117.167 100.072 117.938 100.289 118.678C100.531 119.424 100.923 120.114 101.441 120.703C101.954 121.286 102.581 121.757 103.284 122.087C103.987 122.417 104.749 122.6 105.525 122.623H110.002L117.583 122.672L122.696 122.737L124.085 122.778C124.281 122.794 124.475 122.827 124.665 122.876Z" fill="#263238"/>
<path d="M98.9659 114.928C98.9659 115.042 93.0108 115.14 85.667 115.14C78.3232 115.14 72.3762 115.042 72.3762 114.928C72.3762 114.814 78.3232 114.716 85.667 114.716C93.0108 114.716 98.9659 114.781 98.9659 114.928Z" fill="#263238"/>
<path d="M111.587 124.731C111.587 124.853 102.805 124.943 91.9815 124.943C81.1578 124.943 72.3762 124.853 72.3762 124.731C72.3762 124.608 81.1496 124.518 91.9815 124.518C102.813 124.518 111.587 124.575 111.587 124.731Z" fill="#263238"/>
<path d="M111.587 134.484C111.587 134.607 102.805 134.697 91.9815 134.697C81.1578 134.697 72.3762 134.607 72.3762 134.484C72.3762 134.362 81.1496 134.272 91.9815 134.272C102.813 134.272 111.587 134.37 111.587 134.484Z" fill="#263238"/>
<path d="M111.587 144.279C111.587 144.401 102.805 144.491 91.9815 144.491C81.1578 144.491 72.3762 144.401 72.3762 144.279C72.3762 144.156 81.1496 144.066 91.9815 144.066C102.813 144.066 111.587 144.164 111.587 144.279Z" fill="#263238"/>
<path d="M111.587 154.073C111.587 154.196 102.805 154.286 91.9815 154.286C81.1578 154.286 72.3762 154.196 72.3762 154.073C72.3762 153.951 81.1496 153.861 91.9815 153.861C102.813 153.861 111.587 153.959 111.587 154.073Z" fill="#263238"/>
<path d="M111.587 163.868C111.587 163.99 102.805 164.08 91.9815 164.08C81.1578 164.08 72.3762 163.99 72.3762 163.868C72.3762 163.745 81.1496 163.655 91.9815 163.655C102.813 163.655 111.587 163.753 111.587 163.868Z" fill="#263238"/>
<path d="M89.7103 146.917H53.7917C51.8879 146.917 50.3445 148.461 50.3445 150.365V162.708C50.3445 164.612 51.8879 166.155 53.7917 166.155H89.7103C91.6142 166.155 93.1576 164.612 93.1576 162.708V150.365C93.1576 148.461 91.6142 146.917 89.7103 146.917Z" fill="#78D1F4"/>
<path d="M67.1072 155.821C67.1072 157.455 65.89 158.444 63.9458 158.444H62.4836V160.453H60.8008V153.183H63.9458C65.89 153.183 67.1072 154.188 67.1072 155.821ZM65.3999 155.821C65.3999 155.005 64.8852 154.555 63.8559 154.555H62.4836V157.079H63.8559C64.8852 157.079 65.3999 156.589 65.3999 155.821Z" fill="white"/>
<path d="M68.2998 153.183H71.5674C73.9445 153.183 75.5783 154.612 75.5783 156.818C75.5783 159.024 73.9445 160.453 71.5674 160.453H68.2998V153.183ZM71.5183 159.073C72.1163 159.073 72.6898 158.835 73.1126 158.412C73.5354 157.989 73.773 157.416 73.773 156.818C73.773 156.22 73.5354 155.647 73.1126 155.224C72.6898 154.801 72.1163 154.563 71.5183 154.563H69.9826V159.04L71.5183 159.073Z" fill="white"/>
<path d="M78.5516 154.531V156.45H81.9172V157.806H78.5516V160.453H76.877V153.183H82.3909V154.531H78.5516Z" fill="white"/>
<path d="M86.2548 294.717H36.4247C35.5989 294.727 34.7794 294.572 34.0137 294.263C33.248 293.954 32.5513 293.496 31.964 292.915C31.3766 292.335 30.9103 291.643 30.5921 290.881C30.2739 290.119 30.1101 289.302 30.1101 288.476V219.49C30.1101 217.834 30.7676 216.247 31.9381 215.077C33.1085 213.906 34.6959 213.249 36.3511 213.249H68.0137L92.5203 238.482V288.508C92.5117 290.162 91.847 291.745 90.6722 292.909C89.4974 294.073 87.9086 294.723 86.2548 294.717Z" fill="#EBEBEB"/>
<path d="M68.0139 213.216V232.642C68.0139 234.18 68.625 235.655 69.7127 236.743C70.8004 237.83 72.2756 238.441 73.8138 238.441H92.4879L68.0139 213.216Z" fill="#F5F5F5"/>
<path d="M68.2671 234.341C68.2671 234.341 68.022 239.054 73.3808 240.606C73.585 240.663 73.7893 240.704 73.9935 240.745C76.4442 241.178 92.4878 244.013 92.4878 243.67V238.45H73.8138C73.8138 238.45 69.1493 238.278 68.2671 234.341Z" fill="#E0E0E0"/>
<path d="M86.255 294.717C86.255 294.717 86.6226 294.717 87.3333 294.586C88.3712 294.393 89.3434 293.941 90.1597 293.271C90.8146 292.73 91.3507 292.06 91.7344 291.302C92.1182 290.545 92.3413 289.716 92.3899 288.868C92.3899 286.858 92.3899 284.522 92.3899 281.916C92.3899 271.46 92.3408 256.511 92.3163 238.45L92.3653 238.572L67.8587 213.355L68.0057 213.42H37.7809C36.9792 213.388 36.1763 213.418 35.3792 213.51C34.0455 213.729 32.8248 214.392 31.9145 215.391C31.0043 216.39 30.4578 217.668 30.3635 219.016C30.3635 220.119 30.3635 221.279 30.3635 222.398V242.297V267.18V287.03C30.3227 287.906 30.3609 288.783 30.4779 289.652C30.6458 290.48 30.9837 291.264 31.4702 291.954C31.9567 292.645 32.5813 293.227 33.3043 293.663C34.0086 294.089 34.7925 294.367 35.608 294.48C36.4232 294.543 37.2412 294.565 38.0586 294.545H47.4283L75.856 294.643H83.5756H85.5852H86.2714H85.5852H83.5756L75.856 294.684L47.4447 294.75H38.0341C37.2003 294.772 36.3659 294.75 35.5344 294.684C34.6701 294.583 33.8359 294.305 33.0838 293.867C32.3337 293.418 31.6831 292.82 31.1718 292.111C30.6606 291.402 30.2994 290.596 30.1103 289.742C29.9857 288.852 29.942 287.952 29.9796 287.054V222.406C29.9796 221.27 29.9796 220.16 29.9796 218.991C30.0845 217.548 30.6715 216.182 31.6463 215.112C32.6211 214.042 33.9272 213.331 35.3547 213.093C36.168 213 36.9874 212.97 37.8054 213.004H68.0956L68.161 213.061L92.6186 238.311L92.6676 238.368V238.441C92.6676 256.503 92.6104 271.452 92.5941 281.908C92.5941 284.514 92.5941 286.809 92.5532 288.868C92.462 290.276 91.8976 291.612 90.9515 292.659C90.0054 293.706 88.7332 294.402 87.3415 294.635C87.0715 294.681 86.7984 294.705 86.5246 294.709L86.255 294.717Z" fill="#263238"/>
<path d="M92.488 238.45C92.3314 238.475 92.173 238.489 92.0142 238.49L90.6337 238.531L85.5772 238.597L78.07 238.638H73.6343C72.3875 238.599 71.1833 238.175 70.1882 237.423C69.1932 236.67 68.4563 235.628 68.0794 234.439C67.8519 233.665 67.758 232.859 67.8017 232.053C67.8017 230.518 67.8017 229.039 67.8017 227.626C67.8017 224.816 67.8017 222.275 67.8017 220.119C67.8017 217.962 67.8507 216.312 67.867 215.062C67.867 214.498 67.867 214.049 67.867 213.682C67.8626 213.522 67.879 213.363 67.9161 213.208C67.9281 213.365 67.9281 213.524 67.9161 213.682C67.9161 214.049 67.9161 214.498 67.9161 215.062C67.9161 216.312 67.9161 218.027 67.9814 220.119C68.0468 222.21 67.9814 224.816 68.0304 227.626C68.0304 229.039 68.0304 230.518 68.0304 232.053C67.9854 232.814 68.0738 233.577 68.2918 234.308C68.6429 235.415 69.3288 236.386 70.2549 237.087C71.1811 237.788 72.3019 238.184 73.4627 238.221H77.8821L85.3893 238.27L90.4458 238.335H91.8264C92.0521 238.332 92.2765 238.371 92.488 238.45Z" fill="#263238"/>
<path d="M67.0662 230.55C67.0662 230.665 61.1765 230.763 53.9143 230.763C46.6522 230.763 40.7625 230.665 40.7625 230.55C40.7625 230.436 46.644 230.338 53.9143 230.338C61.1846 230.338 67.0662 230.428 67.0662 230.55Z" fill="#263238"/>
<path d="M79.5483 240.239C79.5483 240.353 70.8647 240.451 60.1553 240.451C49.4459 240.451 40.7297 240.353 40.7297 240.239C40.7297 240.124 49.4051 240.026 60.1227 240.026C70.8402 240.026 79.5483 240.124 79.5483 240.239Z" fill="#263238"/>
<path d="M79.5483 249.927C79.5483 250.049 70.8647 250.139 60.1553 250.139C49.4459 250.139 40.7297 250.049 40.7297 249.927C40.7297 249.804 49.4051 249.714 60.1227 249.714C70.8402 249.714 79.5483 249.813 79.5483 249.927Z" fill="#263238"/>
<path d="M79.5483 259.615C79.5483 259.738 70.8647 259.828 60.1553 259.828C49.4459 259.828 40.7297 259.738 40.7297 259.615C40.7297 259.493 49.4051 259.403 60.1227 259.403C70.8402 259.403 79.5483 259.517 79.5483 259.615Z" fill="#263238"/>
<path d="M79.5483 269.32C79.5483 269.434 70.8647 269.532 60.1553 269.532C49.4459 269.532 40.7297 269.426 40.7297 269.32C40.7297 269.214 49.4051 269.107 60.1227 269.107C70.8402 269.107 79.5483 269.189 79.5483 269.32Z" fill="#263238"/>
<path d="M79.5483 279C79.5483 279.114 70.8647 279.212 60.1553 279.212C49.4459 279.212 40.7297 279.122 40.7297 279C40.7297 278.877 49.4051 278.788 60.1227 278.788C70.8402 278.788 79.5483 278.886 79.5483 279Z" fill="#263238"/>
<path d="M57.8764 262.229H22.4153C20.5114 262.229 18.968 263.773 18.968 265.676V277.815C18.968 279.719 20.5114 281.263 22.4153 281.263H57.8764C59.7803 281.263 61.3237 279.719 61.3237 277.815V265.676C61.3237 263.773 59.7803 262.229 57.8764 262.229Z" fill="#78D1F4"/>
<path d="M35.5427 271.035C35.5427 272.669 34.3418 273.641 32.4221 273.641H30.9762V275.618H29.2935V268.429H32.4058C34.3418 268.429 35.5427 269.426 35.5427 271.035ZM33.8599 271.035C33.8599 270.218 33.3452 269.785 32.3323 269.785H30.9762V272.285H32.3323C33.3779 272.285 33.8599 271.819 33.8599 271.035Z" fill="white"/>
<path d="M42.9601 271.035C42.9601 272.669 41.7592 273.641 39.8396 273.641H38.3855V275.618H36.7517V268.429H39.8641C41.7592 268.429 42.9601 269.426 42.9601 271.035ZM41.2773 271.035C41.2773 270.218 40.7626 269.785 39.7415 269.785H38.3855V272.285H39.7415C40.73 272.285 41.2773 271.819 41.2773 271.035Z" fill="white"/>
<path d="M45.4352 269.785H43.1316V268.429H49.3971V269.785H47.1017V275.618H45.4679L45.4352 269.785Z" fill="white"/>
<path d="M184.306 97.5446H134.754C133.109 97.5446 131.532 96.8914 130.369 95.7286C129.207 94.5658 128.553 92.9888 128.553 91.3444V22.7667C128.553 21.1223 129.207 19.5452 130.369 18.3825C131.532 17.2197 133.109 16.5665 134.754 16.5665H166.179L190.506 41.6368V91.3444C190.506 92.1586 190.346 92.9649 190.034 93.7171C189.723 94.4694 189.266 95.1529 188.69 95.7286C188.115 96.3044 187.431 96.7611 186.679 97.0726C185.927 97.3842 185.12 97.5446 184.306 97.5446Z" fill="#EBEBEB"/>
<path d="M166.179 16.5665V35.8614C166.179 37.391 166.787 38.8579 167.868 39.9394C168.95 41.021 170.417 41.6286 171.946 41.6286H190.506L166.179 16.5665Z" fill="#F5F5F5"/>
<path d="M166.433 37.5605C166.433 37.5605 166.188 42.2413 171.514 43.777C171.715 43.8349 171.92 43.8813 172.126 43.9159C174.577 44.3489 190.506 47.1835 190.506 46.824V41.6368H171.947C171.947 41.6368 167.348 41.4734 166.433 37.5605Z" fill="#E0E0E0"/>
<path d="M184.306 97.5446C184.306 97.5446 184.674 97.5446 185.376 97.4139C186.729 97.1687 187.96 96.4754 188.872 95.4456C189.783 94.4158 190.321 93.1094 190.4 91.7365C190.4 89.7352 190.4 87.4152 190.4 84.8257C190.4 74.443 190.359 59.5838 190.327 41.6368L190.376 41.7593L166.032 16.7054L166.179 16.7707H136.151C135.357 16.736 134.562 16.7633 133.773 16.8524C132.205 17.1238 130.807 18.0048 129.885 19.3031C129.243 20.1968 128.864 21.2522 128.79 22.3501C128.75 23.4529 128.79 24.5965 128.79 25.7157V45.4925C128.79 54.0698 128.79 62.3367 128.79 70.2197C128.79 74.1571 128.79 77.9938 128.79 81.7297C128.79 83.5922 128.79 85.4383 128.79 87.2437V89.9394C128.75 90.8097 128.788 91.6819 128.905 92.5453C129.07 93.3687 129.405 94.1485 129.889 94.8349C130.373 95.5213 130.995 96.0992 131.715 96.5317C132.411 96.9569 133.186 97.235 133.994 97.3486C134.809 97.4116 135.627 97.4334 136.445 97.4139H145.798L174.021 97.4793H181.692H183.685H184.371H183.685H181.692H174.021L145.798 97.5446H136.445C135.628 97.5446 134.811 97.5855 133.994 97.4874C132.682 97.3085 131.457 96.7256 130.491 95.8195C129.525 94.9134 128.865 93.7291 128.603 92.4309C128.474 91.544 128.43 90.6468 128.472 89.7515V87.0558C128.472 85.2505 128.472 83.4043 128.472 81.5418C128.472 77.8059 128.472 73.9692 128.472 70.0318C128.472 62.1489 128.472 53.882 128.472 45.3046C128.472 41.0187 128.472 36.6619 128.472 32.2344V25.6993C128.472 24.572 128.472 23.461 128.472 22.3092C128.574 20.8735 129.156 19.5139 130.125 18.4497C131.095 17.3856 132.394 16.679 133.814 16.444C134.627 16.3491 135.447 16.3191 136.265 16.3541H166.375L166.441 16.4113L190.743 41.5061L190.792 41.5551V41.6286C190.792 59.6002 190.735 74.4349 190.719 84.8175C190.719 87.407 190.719 89.7188 190.678 91.7365C190.62 92.5968 190.385 93.4358 189.987 94.2006C189.589 94.9654 189.037 95.6395 188.366 96.1804C187.537 96.8489 186.549 97.2908 185.499 97.4629C185.229 97.509 184.956 97.5336 184.682 97.5365L184.306 97.5446Z" fill="#263238"/>
<path d="M190.506 41.6368C190.346 41.6485 190.185 41.6485 190.024 41.6368H188.66L183.628 41.7022L176.178 41.743H171.767C170.528 41.7034 169.331 41.2808 168.343 40.5332C167.354 39.7857 166.621 38.75 166.245 37.5687C166.017 36.8035 165.923 36.0049 165.967 35.2079C165.967 33.6803 165.967 32.2017 165.967 30.7967C165.967 28.0111 165.967 25.4869 165.967 23.3467C165.967 21.2064 166.024 19.5645 166.04 18.3147C166.04 17.7592 166.04 17.3099 166.081 16.9504C166.058 16.7934 166.058 16.6337 166.081 16.4767C166.112 16.6326 166.126 16.7915 166.122 16.9504C166.122 17.3099 166.122 17.7673 166.122 18.3147C166.122 19.5645 166.163 21.2636 166.188 23.3467C166.212 25.4297 166.188 28.0111 166.237 30.7967C166.237 32.2017 166.237 33.6803 166.237 35.2079C166.192 35.9635 166.281 36.7211 166.498 37.4462C166.852 38.5427 167.535 39.5036 168.454 40.1979C169.374 40.8922 170.485 41.2863 171.636 41.3264H176.031L183.481 41.3754L188.513 41.4489H189.877C190.096 41.4751 190.309 41.5387 190.506 41.6368Z" fill="#263238"/>
<path d="M165.24 33.7865C165.24 33.9008 159.391 33.9989 152.17 33.9989C144.949 33.9989 139.1 33.9008 139.1 33.7865C139.1 33.6721 144.949 33.5741 152.17 33.5741C159.391 33.5741 165.24 33.6721 165.24 33.7865Z" fill="#263238"/>
<path d="M177.649 43.4176C177.649 43.532 169.014 43.63 158.37 43.63C147.726 43.63 139.1 43.532 139.1 43.4176C139.1 43.3033 147.742 43.2052 158.362 43.2052C168.981 43.2052 177.649 43.2951 177.649 43.4176Z" fill="#263238"/>
<path d="M177.649 53.0405C177.649 53.1631 169.014 53.2529 158.37 53.2529C147.726 53.2529 139.1 53.1631 139.1 53.0405C139.1 52.918 147.742 52.8445 158.362 52.8445C168.981 52.8445 177.649 52.9262 177.649 53.0405Z" fill="#263238"/>
<path d="M177.649 62.6471C177.649 62.7615 169.014 62.8595 158.37 62.8595C147.726 62.8595 139.1 62.7615 139.1 62.6471C139.1 62.5328 147.726 62.4348 158.37 62.4348C169.014 62.4348 177.649 62.5573 177.649 62.6471Z" fill="#263238"/>
<path d="M177.649 72.3028C177.649 72.4171 169.014 72.5151 158.37 72.5151C147.726 72.5151 139.1 72.4171 139.1 72.3028C139.1 72.1884 147.726 72.0904 158.37 72.0904C169.014 72.0904 177.649 72.1802 177.649 72.3028Z" fill="#263238"/>
<path d="M177.649 81.9257C177.649 82.0482 169.014 82.1463 158.37 82.1381C147.726 82.1299 139.1 82.0482 139.1 81.9257C139.1 81.8032 147.726 81.7133 158.37 81.7133C169.014 81.7133 177.649 81.8114 177.649 81.9257Z" fill="#263238"/>
<path d="M156.083 65.2612H120.891C118.987 65.2612 117.444 66.8046 117.444 68.7085V80.7249C117.444 82.6288 118.987 84.1722 120.891 84.1722H156.083C157.987 84.1722 159.53 82.6288 159.53 80.7249V68.7085C159.53 66.8046 157.987 65.2612 156.083 65.2612Z" fill="#78D1F4"/>
<path d="M132.221 78.5601L130.489 76.1095L128.798 78.5601H126.911L129.558 74.925L127.05 71.4124H128.954L130.587 73.7323L132.221 71.4124H134.01L131.559 74.8678L134.223 78.5601H132.221Z" fill="white"/>
<path d="M134.794 71.4124H136.428V77.2123H140.014V78.5601H134.778L134.794 71.4124Z" fill="white"/>
<path d="M140.39 77.8576L140.946 76.6159C141.642 77.0917 142.463 77.3504 143.306 77.3593C144.287 77.3593 144.687 77.0325 144.687 76.5914C144.687 75.2517 140.529 76.1748 140.529 73.5199C140.529 72.3028 141.509 71.2898 143.543 71.2898C144.402 71.2808 145.248 71.5007 145.994 71.927L145.479 73.185C144.881 72.8268 144.199 72.6324 143.502 72.6213C142.522 72.6213 142.138 72.9889 142.138 73.4382C142.138 74.7534 146.296 73.8467 146.296 76.4689C146.296 77.6615 145.308 78.6827 143.266 78.6827C142.246 78.7029 141.244 78.4154 140.39 77.8576Z" fill="white"/>
<path d="M490.786 304.397H440.441C438.771 304.397 437.169 303.733 435.988 302.552C434.807 301.371 434.143 299.769 434.143 298.099V228.426C434.143 226.756 434.807 225.154 435.988 223.973C437.169 222.792 438.771 222.128 440.441 222.128H472.365L497.084 247.599V298.099C497.084 299.769 496.421 301.371 495.24 302.552C494.058 303.733 492.456 304.397 490.786 304.397Z" fill="#EBEBEB"/>
<path d="M472.365 222.128V241.734C472.365 242.503 472.517 243.264 472.811 243.975C473.105 244.686 473.537 245.331 474.081 245.875C474.625 246.419 475.27 246.85 475.981 247.145C476.692 247.439 477.453 247.591 478.222 247.591H497.084L472.365 222.128Z" fill="#F5F5F5"/>
<path d="M472.627 243.457C472.627 243.457 472.382 248.211 477.789 249.772C477.993 249.832 478.201 249.881 478.41 249.919C480.861 250.352 497.084 253.235 497.084 252.868V247.599H478.222C478.222 247.599 473.517 247.435 472.627 243.457Z" fill="#E0E0E0"/>
<path d="M490.786 304.397C490.786 304.397 491.162 304.397 491.873 304.266C493.247 304.012 494.497 303.305 495.424 302.259C496.35 301.212 496.9 299.886 496.986 298.491C496.986 296.465 496.986 294.104 496.986 291.474C496.986 280.928 496.986 265.832 496.913 247.599L496.962 247.721L472.226 222.267L472.365 222.332H441.863C441.045 222.295 440.225 222.325 439.412 222.422C438.625 222.55 437.871 222.832 437.194 223.252C436.517 223.673 435.929 224.224 435.467 224.873C434.808 225.781 434.42 226.858 434.347 227.977C434.347 229.088 434.347 230.256 434.347 231.392V251.471C434.347 260.187 434.347 268.585 434.347 276.59C434.347 280.593 434.347 284.492 434.347 288.288V293.892C434.347 294.815 434.347 295.722 434.347 296.628C434.305 297.515 434.346 298.404 434.47 299.283C434.717 300.536 435.347 301.681 436.274 302.559C437.2 303.437 438.377 304.005 439.641 304.185C440.458 304.283 441.275 304.234 442.092 304.25H451.592L480.273 304.315L488.066 304.356H490.092H490.786H490.092H488.066L480.273 304.397L451.592 304.462H442.092C441.252 304.485 440.412 304.463 439.575 304.397C438.708 304.285 437.873 303.993 437.125 303.539C436.352 303.076 435.684 302.457 435.164 301.721C434.643 300.986 434.282 300.15 434.102 299.267C433.978 298.366 433.934 297.456 433.972 296.547V293.908C433.972 292.073 433.972 290.205 433.972 288.304C433.972 284.492 433.972 280.593 433.972 276.606C433.972 268.601 433.972 260.203 433.972 251.487C433.972 247.13 433.972 242.703 433.972 238.205V231.408C433.972 230.264 433.972 229.137 433.972 227.961C434.053 226.766 434.466 225.617 435.164 224.644C436.171 223.24 437.692 222.291 439.396 222.006C440.209 221.913 441.028 221.883 441.846 221.916H472.455L472.512 221.973L497.207 247.468L497.256 247.517V247.591C497.256 265.824 497.199 280.92 497.182 291.466C497.182 294.104 497.182 296.449 497.182 298.499C497.122 299.373 496.883 300.224 496.479 301.001C496.076 301.778 495.517 302.464 494.838 303.016C493.994 303.693 492.989 304.14 491.922 304.315C491.652 304.361 491.379 304.385 491.105 304.389L490.786 304.397Z" fill="#263238"/>
<path d="M497.084 247.599C496.921 247.611 496.757 247.611 496.594 247.599L495.205 247.64L490.1 247.705L482.527 247.746H478.051C477.219 247.723 476.4 247.528 475.647 247.174C474.893 246.819 474.221 246.313 473.672 245.687C473.112 245.055 472.691 244.312 472.439 243.506C472.203 242.729 472.109 241.915 472.161 241.104C472.161 239.552 472.161 238.058 472.161 236.628C472.161 233.793 472.161 231.228 472.21 229.055C472.259 226.882 472.259 225.216 472.275 223.95C472.275 223.386 472.275 222.921 472.316 222.561C472.304 222.401 472.304 222.24 472.316 222.079C472.354 222.237 472.37 222.399 472.365 222.561V223.95C472.365 225.216 472.365 226.94 472.431 229.055C472.496 231.171 472.431 233.793 472.431 236.628C472.431 238.058 472.431 239.552 472.431 241.104C472.386 241.874 472.475 242.645 472.692 243.384C472.934 244.13 473.326 244.82 473.844 245.41C474.357 245.992 474.984 246.463 475.687 246.793C476.389 247.124 477.152 247.306 477.928 247.329H482.397L489.969 247.378L495.075 247.444L496.463 247.484C496.675 247.489 496.885 247.527 497.084 247.599Z" fill="#263238"/>
<path d="M471.418 239.626C471.418 239.74 465.471 239.838 458.135 239.838C450.8 239.838 444.861 239.74 444.861 239.626C444.861 239.512 450.808 239.414 458.135 239.414C465.463 239.414 471.418 239.503 471.418 239.626Z" fill="#263238"/>
<path d="M484.022 249.404C484.022 249.527 475.249 249.616 464.417 249.616C453.585 249.616 444.812 249.527 444.812 249.404C444.812 249.282 453.577 249.192 464.417 249.192C475.257 249.192 484.022 249.29 484.022 249.404Z" fill="#263238"/>
<path d="M484.022 259.19C484.022 259.305 475.249 259.403 464.417 259.403C453.585 259.403 444.812 259.305 444.812 259.19C444.812 259.076 453.577 258.978 464.417 258.978C475.257 258.978 484.022 259.068 484.022 259.19Z" fill="#263238"/>
<path d="M484.022 268.969C484.022 269.083 475.249 269.181 464.417 269.181C453.585 269.181 444.812 269.083 444.812 268.969C444.812 268.854 453.577 268.756 464.417 268.756C475.257 268.756 484.022 268.854 484.022 268.969Z" fill="#263238"/>
<path d="M484.022 278.755C484.022 278.869 475.249 278.967 464.417 278.967C453.585 278.967 444.812 278.869 444.812 278.755C444.812 278.64 453.577 278.542 464.417 278.542C475.257 278.542 484.022 278.632 484.022 278.755Z" fill="#263238"/>
<path d="M484.022 290.812C484.022 290.935 475.249 291.033 464.417 291.033C453.585 291.033 444.812 290.935 444.812 290.812C444.812 290.69 453.577 290.6 464.417 290.6C475.257 290.6 484.022 290.698 484.022 290.812Z" fill="#263238"/>
<path d="M462.17 271.599H426.309C424.405 271.599 422.862 273.142 422.862 275.046V287.365C422.862 289.269 424.405 290.812 426.309 290.812H462.17C464.074 290.812 465.618 289.269 465.618 287.365V275.046C465.618 273.142 464.074 271.599 462.17 271.599Z" fill="#78D1F4"/>
<path d="M427.812 277.873H431.08C433.449 277.873 435.083 279.302 435.083 281.5C435.083 283.697 433.449 285.127 431.08 285.127H427.812V277.873ZM431.023 283.746C431.33 283.765 431.637 283.72 431.926 283.615C432.215 283.511 432.48 283.348 432.704 283.137C432.928 282.926 433.106 282.672 433.228 282.39C433.35 282.107 433.413 281.803 433.413 281.496C433.413 281.188 433.35 280.884 433.228 280.601C433.106 280.319 432.928 280.065 432.704 279.854C432.48 279.643 432.215 279.48 431.926 279.376C431.637 279.271 431.33 279.226 431.023 279.245H429.495V283.746H431.023Z" fill="white"/>
<path d="M435.916 281.5C435.872 280.705 436.067 279.915 436.476 279.233C436.886 278.55 437.491 278.006 438.213 277.671C438.934 277.336 439.74 277.225 440.526 277.352C441.312 277.48 442.041 277.84 442.62 278.387C443.198 278.934 443.6 279.641 443.772 280.418C443.944 281.195 443.879 282.006 443.586 282.746C443.292 283.486 442.784 284.121 442.125 284.568C441.467 285.016 440.69 285.256 439.894 285.257C439.383 285.286 438.871 285.21 438.389 285.035C437.908 284.859 437.468 284.587 437.096 284.235C436.723 283.883 436.427 283.459 436.224 282.989C436.021 282.519 435.916 282.012 435.916 281.5ZM442.165 281.5C442.155 281.053 442.014 280.618 441.759 280.252C441.503 279.885 441.145 279.601 440.73 279.437C440.314 279.272 439.859 279.234 439.422 279.327C438.984 279.42 438.584 279.641 438.272 279.96C437.959 280.279 437.748 280.684 437.664 281.123C437.58 281.562 437.628 282.016 437.801 282.429C437.974 282.841 438.265 283.193 438.638 283.44C439.01 283.687 439.447 283.819 439.894 283.82C440.199 283.828 440.502 283.773 440.784 283.659C441.067 283.544 441.323 283.373 441.536 283.155C441.749 282.937 441.915 282.678 442.023 282.393C442.131 282.108 442.18 281.804 442.165 281.5Z" fill="white"/>
<path d="M444.673 281.5C444.722 280.718 445 279.969 445.472 279.344C445.944 278.72 446.589 278.248 447.327 277.987C448.065 277.726 448.864 277.687 449.623 277.876C450.383 278.065 451.07 278.473 451.6 279.049L450.522 280.046C450.296 279.782 450.015 279.572 449.699 279.431C449.382 279.29 449.038 279.221 448.692 279.229C448.077 279.229 447.487 279.473 447.051 279.908C446.616 280.343 446.372 280.933 446.372 281.549C446.372 282.164 446.616 282.754 447.051 283.189C447.487 283.624 448.077 283.869 448.692 283.869C449.042 283.873 449.388 283.798 449.705 283.649C450.022 283.501 450.301 283.283 450.522 283.011L451.6 284.007C451.072 284.587 450.384 284.999 449.624 285.19C448.863 285.381 448.062 285.343 447.323 285.082C446.583 284.82 445.937 284.346 445.466 283.719C444.995 283.092 444.719 282.34 444.673 281.557V281.5Z" fill="white"/>
<path d="M457.155 285.127L455.399 282.611L453.683 285.127H451.747L454.435 281.434L451.886 277.873H453.797L455.431 280.225L457.065 277.873H458.878L456.346 281.377L459.05 285.127H457.155Z" fill="white"/>
</svg>
