<svg width="21" height="20" viewBox="0 0 21 20" fill="none" xmlns="http://www.w3.org/2000/svg">
<path d="M19.4809 10.8091C19.3236 12.5113 18.6847 14.1335 17.6391 15.4859C16.5935 16.8383 15.1843 17.8649 13.5766 18.4456C11.9688 19.0264 10.2288 19.1372 8.56036 18.7652C6.89188 18.3932 5.36385 17.5536 4.15508 16.3449C2.94632 15.1361 2.1068 13.6081 1.73477 11.9396C1.36273 10.2711 1.47357 8.53119 2.05432 6.9234C2.63506 5.31561 3.66169 3.90647 5.01407 2.86086C6.36645 1.81524 7.98865 1.17641 9.69086 1.0191C8.69427 2.36737 8.21471 4.02855 8.33939 5.70052C8.46407 7.37248 9.18472 8.94416 10.3703 10.1297C11.5558 11.3152 13.1275 12.0359 14.7994 12.1606C16.4714 12.2853 18.1326 11.8057 19.4809 10.8091V10.8091Z" stroke="#445ee2" stroke-width="2" stroke-linecap="round" stroke-linejoin="round"/>
</svg>
