<svg width="18" height="17" viewBox="0 0 18 17" fill="none" xmlns="http://www.w3.org/2000/svg">
<path d="M16.5556 13.7135C16.5556 14.1261 16.3917 14.5218 16.0999 14.8135C15.8082 15.1052 15.4126 15.2691 15 15.2691H2.55556C2.143 15.2691 1.74733 15.1052 1.45561 14.8135C1.16389 14.5218 1 14.1261 1 13.7135V2.82466C1 2.4121 1.16389 2.01644 1.45561 1.72472C1.74733 1.43299 2.143 1.2691 2.55556 1.2691H5.04228C5.91828 1.2691 6.73631 1.7069 7.22222 2.43577V2.43577C7.70813 3.16464 8.52617 3.60244 9.40216 3.60244H15C15.4126 3.60244 15.8082 3.76633 16.0999 4.05805C16.3917 4.34977 16.5556 4.74543 16.5556 5.15799V13.7135Z" stroke="#566474" stroke-width="2" stroke-linecap="round" stroke-linejoin="round"/>
</svg>
