<svg width="22" height="17" viewBox="0 0 22 17" fill="none" xmlns="http://www.w3.org/2000/svg">
<path d="M16.0559 14.6559C15.765 14.9468 15.3705 15.1102 14.9592 15.1102H2.55102C2.13966 15.1102 1.74516 14.9468 1.45428 14.6559C1.16341 14.3651 1 13.9706 1 13.5592V2.70208C1 2.29073 1.16341 1.89622 1.45428 1.60534C1.74516 1.31447 2.13966 1.15106 2.55102 1.15106H5.0305C5.90393 1.15106 6.71958 1.58758 7.20408 2.31433V2.31433C7.68857 3.04107 8.50422 3.47759 9.37766 3.47759H14.9592C15.3705 3.47759 15.765 3.641 16.0559 3.93187C16.3468 4.22275 16.5102 4.61725 16.5102 5.02861V7.16126" stroke="#445EE2" stroke-width="2" stroke-linecap="round" stroke-linejoin="round"/>
<path d="M20.9502 7.35513L16.2082 14.5066" stroke="#445EE2" stroke-width="2" stroke-linecap="round" stroke-linejoin="round"/>
<path fill-rule="evenodd" clip-rule="evenodd" d="M6.44752 6.35511H20.95C21.5023 6.35511 21.95 6.80283 21.95 7.35511C21.95 7.9074 21.5023 8.35511 20.95 8.35511H9.87778C8.09808 8.35511 6.45253 9.3011 5.55696 10.8391L3.19794 14.8902C2.92003 15.3674 2.30783 15.529 1.83057 15.2511C1.35331 14.9732 1.1917 14.361 1.46962 13.8838L5.55479 6.86832C5.64311 6.71013 5.77315 6.5784 5.93003 6.48802C6.08708 6.39793 6.26636 6.35183 6.44752 6.35511Z" fill="#445EE2"/>
</svg>
